<svg xmlns="http://www.w3.org/2000/svg" xmlns:xlink="http://www.w3.org/1999/xlink" viewBox="0 0 4680 3120"><defs><style>.cls-1,.cls-23,.cls-48,.cls-7{fill:#fff;}.cls-1{opacity:0;}.cls-2{fill:#b0dfe5;}.cls-3{fill:#caecef;}.cls-4{fill:#2055bb;}.cls-5{fill:#f22d65;}.cls-6{fill:#f2558a;}.cls-8{fill:#f76d9b;}.cls-9{fill:#0f4aa8;}.cls-10{fill:#457dd8;}.cls-11{fill:#3973c6;}.cls-12{fill:#61bfff;}.cls-13{fill:#4b6bfe;}.cls-14{fill:#9bd8f9;}.cls-15{fill:#41b1d8;}.cls-16{fill:#393939;}.cls-17{fill:#7a7a7a;}.cls-17,.cls-22,.cls-23,.cls-25,.cls-32,.cls-47{stroke:#000;stroke-miterlimit:10;stroke-width:1px;}.cls-18{fill:#b60b2d;}.cls-19{fill:#22217e;}.cls-20{fill:#00174b;}.cls-21{fill:#ff9c02;}.cls-22{fill:#c5c5c5;}.cls-24{clip-path:url(#clip-path);}.cls-25{fill:#d1d1d1;}.cls-26{fill:#018e85;}.cls-27{fill:#8e8e8e;}.cls-28{fill:#047267;}.cls-29{fill:#20a090;}.cls-30{fill:#def8f7;}.cls-31{opacity:0.35;}.cls-32{fill:#565656;}.cls-33{fill:#232063;}.cls-34{fill:#2e2e89;}.cls-35{fill:#618aff;}.cls-36{fill:#619aff;}.cls-37{fill:#dedede;}.cls-38{fill:#ccc;}.cls-39{fill:#44110a;}.cls-40{fill:#5d1f14;}.cls-41{fill:#191956;}.cls-42{fill:#13134f;}.cls-43{fill:#1a1a72;}.cls-44{fill:#fbc5a9;}.cls-45{fill:#f7a18a;}.cls-46{fill:#174ba0;}.cls-47{fill:#252525;}.cls-48{opacity:0.06;}.cls-49{fill:#840f2c;}.cls-50{fill:#b2b2b2;}.cls-51{fill:#c6c6c6;}.cls-52{fill:#e8e8e8;}.cls-53{fill:#d02d65;}.cls-54{fill:#7dc6cc;}.cls-55{fill:#16164c;}.cls-56{fill:#e6e6e6;}.cls-57{fill:#54bac9;}.cls-58{fill:#3baab2;}.cls-59,.cls-60{fill:#15154c;}.cls-60{opacity:0.32;}</style><clipPath id="clip-path"><path d="M1713.13,2149c-3.4,0-6.55-.07-9.62-.14s-5.76-.12-8.69-.12c-53.14,0-94.76-41.81-94.76-95.19a97.58,97.58,0,0,1,27.09-67.82,94.5,94.5,0,0,1,65.23-29.4v-.15h851.9v2.58l-.4.08c-20.88,3.91-36.87,14.91-47.51,32.68-9.53,15.89-14.56,37.35-14.56,62,0,52.85,21.4,86.4,60.27,94.45l4.77,1H1713.13Zm-19.75-191.82v.12h-.49a93.56,93.56,0,0,0-65,29.11,96.61,96.61,0,0,0-26.81,67.13c0,52.82,41.18,94.19,93.76,94.19,2.94,0,5.74.06,8.71.13,3.57.07,7.25.15,11.31.12h822.83c-36.71-9.65-56.86-43-56.86-94.44,0-24.86,5.08-46.49,14.7-62.55,10.73-17.91,26.8-29,47.77-33.06v-.76Z"/></clipPath></defs><title>06</title><g id="_06" data-name="06"><rect id="_06-2" data-name="06" class="cls-1" width="4680" height="3120"/><path class="cls-2" d="M3935.75,941.85c-43.41-148.46-85.84-305.76-152.84-445.4-16.49-34.37-36.58-67.82-65.19-93-64.31-56.65-151.91-41.22-223.88-9.17-174.62,77.77-307.68,223.16-433,363-68.59,76.52-137.75,153.42-196.41,237.59-25.75,37-57.41,73.24-100.32,86.71l-1,.33c-97,29.5-202.21-58.69-276.84-109.46-152.62-103.81-289-249.91-460.35-322.68-300.21-127.53-627.76,111.6-813.2,329.87C1084,1131.07,970.31,1310,927.19,1506.66c-24.43,111.43-19.09,247.3,59.55,335.82,76,85.53,184.2,137.68,293.13,167.21,218.2,59.16,457.44,80.74,680,39,274.93-51.6,559.38-144,838.11-61.68,177.28,52.36,356.43,120.42,538.87,163.47,160.82,38,367.23,76.24,515.59-20.63,168.81-110.22,196.52-367.45,194.79-550.22C4045.19,1363.06,3996.24,1148.76,3935.75,941.85Z"/><ellipse class="cls-3" cx="1094.44" cy="2167.18" rx="504.29" ry="76.87"/><path class="cls-4" d="M1371.61,2015.3l-714.4,3c-10.63,0-19.19,5.68-19.17,12.63l.48,117.1c0,6.92,8.66,12.52,19.28,12.47l714.43-3c10.6-.05,19.19-5.69,19.16-12.62l-.47-117.12C1390.87,2020.81,1382.24,2015.25,1371.61,2015.3Z"/><path class="cls-5" d="M1433,1872.83l-627.15,2.61c-9.29,0-16.83,5.67-16.81,12.62l.5,117.1c0,7,7.6,12.53,16.9,12.48l627.16-2.59c9.3,0,16.85-5.71,16.81-12.62l-.49-117.14C1449.92,1878.35,1442.34,1872.78,1433,1872.83Z"/><path class="cls-6" d="M789.5,1991.44l.07,17.67c0,4.75,7.59,8.58,16.89,8.53l627.15-2.59c9.31,0,16.86-3.94,16.84-8.69l-.08-17.67Z"/><path class="cls-7" d="M924.08,1894.56c-26.39.11-47.71,19.61-47.61,43.51s21.57,43.22,48,43.1,47.7-19.58,47.61-43.49S950.47,1894.47,924.08,1894.56Z"/><polygon class="cls-8" points="840.64 1991.23 840.76 2017.53 1161.68 2016.17 1161.58 1989.9 840.64 1991.23"/><path class="cls-9" d="M637.23,2116.07l.12,29.91c0,8.06,8.68,14.55,19.3,14.5l715.55-3c10.62-.05,19.2-6.61,19.18-14.65l-.13-29.9Z"/><rect class="cls-10" x="806.75" y="2017.31" width="159.54" height="142.23" transform="translate(-8.75 3.74) rotate(-0.24)"/><polygon class="cls-10" points="1138.92 2016.26 1139.54 2158.47 1161.91 2158.39 1161.29 2016.17 1138.92 2016.26"/><polygon class="cls-11" points="806.86 2115.38 807.05 2159.87 966.59 2159.2 966.38 2114.72 806.86 2115.38"/><polygon class="cls-11" points="1139.34 2114 1139.54 2158.47 1161.91 2158.39 1161.69 2113.91 1139.34 2114"/><path class="cls-12" d="M1120,1777.1l-353.77,1.48c-5.27,0-9.5,3.89-9.49,8.67l.33,80.62c0,4.77,4.3,8.63,9.56,8.61l353.79-1.48c5.26,0,9.5-3.9,9.48-8.68l-.32-80.63C1129.58,1780.9,1125.3,1777.07,1120,1777.1Z"/><path class="cls-13" d="M756.44,1845.88l.08,20.6a9.79,9.79,0,0,0,9.57,10l354.35-1.47a9.82,9.82,0,0,0,9.49-10.08l-.09-20.58Z"/><rect class="cls-14" x="840.36" y="1778.18" width="36.12" height="97.92" transform="translate(-7.63 3.6) rotate(-0.24)"/><rect class="cls-14" x="1005.01" y="1777.55" width="11.08" height="97.91" transform="translate(-7.82 4.35) rotate(-0.25)"/><rect class="cls-15" x="840.51" y="1845.47" width="35.99" height="30.63" transform="translate(-7.74 3.59) rotate(-0.24)"/><polygon class="cls-15" points="1005.09 1844.86 1005.22 1875.48 1016.3 1875.44 1016.16 1844.81 1005.09 1844.86"/><rect class="cls-14" x="1028.14" y="1777.55" width="11.08" height="97.91" transform="translate(-7.82 4.45) rotate(-0.25)"/><polygon class="cls-15" points="1028.22 1844.86 1028.35 1875.48 1039.43 1875.44 1039.29 1844.81 1028.22 1844.86"/><path class="cls-16" d="M2881.92,1238.57a64.22,64.22,0,0,0-64.21-64.22h-10.27a64.22,64.22,0,0,0-64.22,64.22h38.44v15h-38.44v24.19h38.44v15.06h-38.44V1317h38.44v15.07h-38.44v75.69a69.35,69.35,0,0,0,69.35,69.35h0a69.35,69.35,0,0,0,69.35-69.35v-75.69h-38.44V1317h38.44v-24.17h-38.44v-15.06h38.44v-24.19h-38.44v-15Z"/><rect class="cls-16" x="2799.67" y="1414.09" width="25.8" height="158.62"/><rect class="cls-16" x="2733.26" y="1552.22" width="158.62" height="25.8"/><path class="cls-16" d="M2906.28,1266.92a72,72,0,0,1,2.69,90.19,54.76,54.76,0,0,0-2.69-90.19Z"/><path class="cls-16" d="M2927.25,1252.16a95.5,95.5,0,0,1,3.57,119.7,71.72,71.72,0,0,0,29.72-58.67C2960.54,1287.19,2947.17,1264.48,2927.25,1252.16Z"/><path class="cls-16" d="M2947,1233.07a126,126,0,0,1,4.71,157.89c23.65-16.8,39.19-45.19,39.19-77.39C2990.92,1279.28,2973.29,1249.32,2947,1233.07Z"/><path class="cls-16" d="M2689.46,1312.9a54,54,0,0,0,22.39,44.21,72,72,0,0,1,2.69-90.19A53.87,53.87,0,0,0,2689.46,1312.9Z"/><path class="cls-16" d="M2660.28,1313.19a71.72,71.72,0,0,0,29.72,58.67,95.5,95.5,0,0,1,3.57-119.7C2673.65,1264.48,2660.28,1287.19,2660.28,1313.19Z"/><path class="cls-16" d="M2629.9,1313.57c0,32.2,15.54,60.59,39.19,77.39a126,126,0,0,1,4.71-157.89C2647.53,1249.32,2629.9,1279.28,2629.9,1313.57Z"/><path class="cls-17" d="M1599.47,2016.66a12.27,12.27,0,0,0,1.09-5,11.1,11.1,0,0,0-.35-2.81Z"/><rect class="cls-7" x="1847.57" y="431.49" width="520.01" height="289.83"/><rect class="cls-18" x="1847.57" y="431.49" width="520.01" height="21.71"/><rect class="cls-18" x="1847.57" y="476.18" width="520.01" height="21.71"/><rect class="cls-18" x="1847.57" y="520.86" width="520.01" height="21.71"/><rect class="cls-18" x="1847.57" y="565.55" width="520.01" height="21.7"/><rect class="cls-18" x="1847.57" y="610.24" width="520.01" height="21.71"/><rect class="cls-18" x="1847.57" y="654.92" width="520.01" height="21.71"/><rect class="cls-18" x="1847.57" y="699.61" width="520.01" height="21.71"/><rect class="cls-19" x="1847.57" y="431.49" width="210.16" height="155.77"/><polygon class="cls-7" points="1862.36 442.89 1860.37 436.4 1858.38 442.89 1851.93 442.89 1857.14 446.91 1855.15 453.4 1860.37 449.39 1865.58 453.4 1863.59 446.91 1868.8 442.89 1862.36 442.89"/><polygon class="cls-7" points="1885.43 442.89 1883.44 436.4 1881.45 442.89 1875 442.89 1880.21 446.91 1878.22 453.4 1883.44 449.39 1888.65 453.4 1886.66 446.91 1891.87 442.89 1885.43 442.89"/><polygon class="cls-7" points="1908.5 442.89 1906.51 436.4 1904.52 442.89 1898.07 442.89 1903.29 446.91 1901.29 453.4 1906.51 449.39 1911.72 453.4 1909.73 446.91 1914.94 442.89 1908.5 442.89"/><polygon class="cls-7" points="1931.57 442.89 1929.58 436.4 1927.59 442.89 1921.14 442.89 1926.36 446.91 1924.37 453.4 1929.58 449.39 1934.79 453.4 1932.8 446.91 1938.01 442.89 1931.57 442.89"/><polygon class="cls-7" points="1954.64 442.89 1952.65 436.4 1950.66 442.89 1944.21 442.89 1949.43 446.91 1947.44 453.4 1952.65 449.39 1957.86 453.4 1955.87 446.91 1961.09 442.89 1954.64 442.89"/><polygon class="cls-7" points="1977.71 442.89 1975.72 436.4 1973.73 442.89 1967.28 442.89 1972.5 446.91 1970.51 453.4 1975.72 449.39 1980.93 453.4 1978.94 446.91 1984.15 442.89 1977.71 442.89"/><polygon class="cls-7" points="2000.78 442.89 1998.79 436.4 1996.8 442.89 1990.35 442.89 1995.57 446.91 1993.58 453.4 1998.79 449.39 2004 453.4 2002.01 446.91 2007.22 442.89 2000.78 442.89"/><polygon class="cls-7" points="2023.85 442.89 2021.86 436.4 2019.87 442.89 2013.42 442.89 2018.64 446.91 2016.65 453.4 2021.86 449.39 2027.07 453.4 2025.08 446.91 2030.3 442.89 2023.85 442.89"/><polygon class="cls-7" points="2046.92 442.89 2044.93 436.4 2042.94 442.89 2036.49 442.89 2041.71 446.91 2039.72 453.4 2044.93 449.39 2050.14 453.4 2048.15 446.91 2053.37 442.89 2046.92 442.89"/><polygon class="cls-7" points="1862.36 494.47 1860.37 487.97 1858.38 494.47 1851.93 494.47 1857.14 498.49 1855.15 504.98 1860.37 500.97 1865.58 504.98 1863.59 498.49 1868.8 494.47 1862.36 494.47"/><polygon class="cls-7" points="1885.43 494.47 1883.44 487.97 1881.45 494.47 1875 494.47 1880.21 498.49 1878.22 504.98 1883.44 500.97 1888.65 504.98 1886.66 498.49 1891.87 494.47 1885.43 494.47"/><polygon class="cls-7" points="1908.5 494.47 1906.51 487.97 1904.52 494.47 1898.07 494.47 1903.29 498.49 1901.29 504.98 1906.51 500.97 1911.72 504.98 1909.73 498.49 1914.94 494.47 1908.5 494.47"/><polygon class="cls-7" points="1931.57 494.47 1929.58 487.97 1927.59 494.47 1921.14 494.47 1926.36 498.49 1924.37 504.98 1929.58 500.97 1934.79 504.98 1932.8 498.49 1938.01 494.47 1931.57 494.47"/><polygon class="cls-7" points="1954.64 494.47 1952.65 487.97 1950.66 494.47 1944.21 494.47 1949.43 498.49 1947.44 504.98 1952.65 500.97 1957.86 504.98 1955.87 498.49 1961.09 494.47 1954.64 494.47"/><polygon class="cls-7" points="1977.71 494.47 1975.72 487.97 1973.73 494.47 1967.28 494.47 1972.5 498.49 1970.51 504.98 1975.72 500.97 1980.93 504.98 1978.94 498.49 1984.15 494.47 1977.71 494.47"/><polygon class="cls-7" points="2000.78 494.47 1998.79 487.97 1996.8 494.47 1990.35 494.47 1995.57 498.49 1993.58 504.98 1998.79 500.97 2004 504.98 2002.01 498.49 2007.22 494.47 2000.78 494.47"/><polygon class="cls-7" points="2023.85 494.47 2021.86 487.97 2019.87 494.47 2013.42 494.47 2018.64 498.49 2016.65 504.98 2021.86 500.97 2027.07 504.98 2025.08 498.49 2030.3 494.47 2023.85 494.47"/><polygon class="cls-7" points="2046.92 494.47 2044.93 487.97 2042.94 494.47 2036.49 494.47 2041.71 498.49 2039.72 504.98 2044.93 500.97 2050.14 504.98 2048.15 498.49 2053.37 494.47 2046.92 494.47"/><polygon class="cls-7" points="1862.36 546.05 1860.37 539.55 1858.38 546.05 1851.93 546.05 1857.14 550.06 1855.15 556.56 1860.37 552.54 1865.58 556.56 1863.59 550.06 1868.8 546.05 1862.36 546.05"/><polygon class="cls-7" points="1885.43 546.05 1883.44 539.55 1881.45 546.05 1875 546.05 1880.21 550.06 1878.22 556.56 1883.44 552.54 1888.65 556.56 1886.66 550.06 1891.87 546.05 1885.43 546.05"/><polygon class="cls-7" points="1908.5 546.05 1906.51 539.55 1904.52 546.05 1898.07 546.05 1903.29 550.06 1901.29 556.56 1906.51 552.54 1911.72 556.56 1909.73 550.06 1914.94 546.05 1908.5 546.05"/><polygon class="cls-7" points="1931.57 546.05 1929.58 539.55 1927.59 546.05 1921.14 546.05 1926.36 550.06 1924.37 556.56 1929.58 552.54 1934.79 556.56 1932.8 550.06 1938.01 546.05 1931.57 546.05"/><polygon class="cls-7" points="1954.64 546.05 1952.65 539.55 1950.66 546.05 1944.21 546.05 1949.43 550.06 1947.44 556.56 1952.65 552.54 1957.86 556.56 1955.87 550.06 1961.09 546.05 1954.64 546.05"/><polygon class="cls-7" points="1977.71 546.05 1975.72 539.55 1973.73 546.05 1967.28 546.05 1972.5 550.06 1970.51 556.56 1975.72 552.54 1980.93 556.56 1978.94 550.06 1984.15 546.05 1977.71 546.05"/><polygon class="cls-7" points="2000.78 546.05 1998.79 539.55 1996.8 546.05 1990.35 546.05 1995.57 550.06 1993.58 556.56 1998.79 552.54 2004 556.56 2002.01 550.06 2007.22 546.05 2000.78 546.05"/><polygon class="cls-7" points="2023.85 546.05 2021.86 539.55 2019.87 546.05 2013.42 546.05 2018.64 550.06 2016.65 556.56 2021.86 552.54 2027.07 556.56 2025.08 550.06 2030.3 546.05 2023.85 546.05"/><polygon class="cls-7" points="2046.92 546.05 2044.93 539.55 2042.94 546.05 2036.49 546.05 2041.71 550.06 2039.72 556.56 2044.93 552.54 2050.14 556.56 2048.15 550.06 2053.37 546.05 2046.92 546.05"/><polygon class="cls-7" points="1873.89 468.68 1871.9 462.19 1869.91 468.68 1863.47 468.68 1868.68 472.7 1866.69 479.19 1871.9 475.18 1877.12 479.19 1875.13 472.7 1880.34 468.68 1873.89 468.68"/><polygon class="cls-7" points="1896.96 468.68 1894.97 462.19 1892.98 468.68 1886.54 468.68 1891.75 472.7 1889.76 479.19 1894.97 475.18 1900.19 479.19 1898.19 472.7 1903.41 468.68 1896.96 468.68"/><polygon class="cls-7" points="1920.03 468.68 1918.04 462.19 1916.05 468.68 1909.61 468.68 1914.82 472.7 1912.83 479.19 1918.04 475.18 1923.26 479.19 1921.26 472.7 1926.48 468.68 1920.03 468.68"/><polygon class="cls-7" points="1943.1 468.68 1941.11 462.19 1939.12 468.68 1932.68 468.68 1937.89 472.7 1935.9 479.19 1941.11 475.18 1946.33 479.19 1944.34 472.7 1949.55 468.68 1943.1 468.68"/><polygon class="cls-7" points="1966.17 468.68 1964.18 462.19 1962.19 468.68 1955.75 468.68 1960.96 472.7 1958.97 479.19 1964.18 475.18 1969.4 479.19 1967.41 472.7 1972.62 468.68 1966.17 468.68"/><polygon class="cls-7" points="1989.25 468.68 1987.25 462.19 1985.26 468.68 1978.82 468.68 1984.03 472.7 1982.04 479.19 1987.25 475.18 1992.47 479.19 1990.48 472.7 1995.69 468.68 1989.25 468.68"/><polygon class="cls-7" points="2012.32 468.68 2010.33 462.19 2008.33 468.68 2001.89 468.68 2007.1 472.7 2005.11 479.19 2010.33 475.18 2015.54 479.19 2013.55 472.7 2018.76 468.68 2012.32 468.68"/><polygon class="cls-7" points="2035.39 468.68 2033.4 462.19 2031.4 468.68 2024.96 468.68 2030.17 472.7 2028.18 479.19 2033.4 475.18 2038.61 479.19 2036.62 472.7 2041.83 468.68 2035.39 468.68"/><polygon class="cls-7" points="1873.89 520.26 1871.9 513.76 1869.91 520.26 1863.47 520.26 1868.68 524.27 1866.69 530.77 1871.9 526.75 1877.12 530.77 1875.13 524.27 1880.34 520.26 1873.89 520.26"/><polygon class="cls-7" points="1896.96 520.26 1894.97 513.76 1892.98 520.26 1886.54 520.26 1891.75 524.27 1889.76 530.77 1894.97 526.75 1900.19 530.77 1898.19 524.27 1903.41 520.26 1896.96 520.26"/><polygon class="cls-7" points="1920.03 520.26 1918.04 513.76 1916.05 520.26 1909.61 520.26 1914.82 524.27 1912.83 530.77 1918.04 526.75 1923.26 530.77 1921.26 524.27 1926.48 520.26 1920.03 520.26"/><polygon class="cls-7" points="1943.1 520.26 1941.11 513.76 1939.12 520.26 1932.68 520.26 1937.89 524.27 1935.9 530.77 1941.11 526.75 1946.33 530.77 1944.34 524.27 1949.55 520.26 1943.1 520.26"/><polygon class="cls-7" points="1966.17 520.26 1964.18 513.76 1962.19 520.26 1955.75 520.26 1960.96 524.27 1958.97 530.77 1964.18 526.75 1969.4 530.77 1967.41 524.27 1972.62 520.26 1966.17 520.26"/><polygon class="cls-7" points="1989.25 520.26 1987.25 513.76 1985.26 520.26 1978.82 520.26 1984.03 524.27 1982.04 530.77 1987.25 526.75 1992.47 530.77 1990.48 524.27 1995.69 520.26 1989.25 520.26"/><polygon class="cls-7" points="2012.32 520.26 2010.33 513.76 2008.33 520.26 2001.89 520.26 2007.1 524.27 2005.11 530.77 2010.33 526.75 2015.54 530.77 2013.55 524.27 2018.76 520.26 2012.32 520.26"/><polygon class="cls-7" points="2035.39 520.26 2033.4 513.76 2031.4 520.26 2024.96 520.26 2030.17 524.27 2028.18 530.77 2033.4 526.75 2038.61 530.77 2036.62 524.27 2041.83 520.26 2035.39 520.26"/><polygon class="cls-7" points="1873.89 571.84 1871.9 565.34 1869.91 571.84 1863.47 571.84 1868.68 575.85 1866.69 582.35 1871.9 578.33 1877.12 582.35 1875.13 575.85 1880.34 571.84 1873.89 571.84"/><polygon class="cls-7" points="1896.96 571.84 1894.97 565.34 1892.98 571.84 1886.54 571.84 1891.75 575.85 1889.76 582.35 1894.97 578.33 1900.19 582.35 1898.19 575.85 1903.41 571.84 1896.96 571.84"/><polygon class="cls-7" points="1920.03 571.84 1918.04 565.34 1916.05 571.84 1909.61 571.84 1914.82 575.85 1912.83 582.35 1918.04 578.33 1923.26 582.35 1921.26 575.85 1926.48 571.84 1920.03 571.84"/><polygon class="cls-7" points="1943.1 571.84 1941.11 565.34 1939.12 571.84 1932.68 571.84 1937.89 575.85 1935.9 582.35 1941.11 578.33 1946.33 582.35 1944.34 575.85 1949.55 571.84 1943.1 571.84"/><polygon class="cls-7" points="1966.17 571.84 1964.18 565.34 1962.19 571.84 1955.75 571.84 1960.96 575.85 1958.97 582.35 1964.18 578.33 1969.4 582.35 1967.41 575.85 1972.62 571.84 1966.17 571.84"/><polygon class="cls-7" points="1989.25 571.84 1987.25 565.34 1985.26 571.84 1978.82 571.84 1984.03 575.85 1982.04 582.35 1987.25 578.33 1992.47 582.35 1990.48 575.85 1995.69 571.84 1989.25 571.84"/><polygon class="cls-7" points="2012.32 571.84 2010.33 565.34 2008.33 571.84 2001.89 571.84 2007.1 575.85 2005.11 582.35 2010.33 578.33 2015.54 582.35 2013.55 575.85 2018.76 571.84 2012.32 571.84"/><polygon class="cls-7" points="2035.39 571.84 2033.4 565.34 2031.4 571.84 2024.96 571.84 2030.17 575.85 2028.18 582.35 2033.4 578.33 2038.61 582.35 2036.62 575.85 2041.83 571.84 2035.39 571.84"/><rect class="cls-20" x="1792.17" y="380.8" width="5.62" height="48.08"/><rect class="cls-20" x="1784.05" y="419.19" width="21.86" height="1056.07"/><path class="cls-21" d="M1795,360a13.66,13.66,0,1,0,13.65,13.66A13.67,13.67,0,0,0,1795,360Z"/><path class="cls-21" d="M1795,393.7s-18.19,5-11.84,16.49c0,0,1.78,3.88,11.84,3.88s11.83-3.88,11.83-3.88C1813.16,398.74,1795,393.7,1795,393.7Z"/><rect class="cls-20" x="1798.16" y="440.6" width="45.08" height="18.21"/><rect class="cls-20" x="1798.16" y="678.28" width="45.08" height="18.21"/><rect class="cls-20" x="1833.22" y="431.49" width="14.34" height="290.49"/><path class="cls-22" d="M1600.21,2008.84l.35-3.7h-1.84A13.74,13.74,0,0,1,1600.21,2008.84Z"/><ellipse class="cls-3" cx="2107.5" cy="2167.18" rx="592.78" ry="76.87"/><path class="cls-23" d="M1692.88,1956.78c-51.24,1.57-92.32,44.22-92.32,96.74,0,53.53,41.69,94.69,94.26,94.69,6.52,0,13.57.47,20,.25H2542c-43.42-9-60.67-48.08-60.67-94.94,0-47.47,18.19-86.9,62.47-95.2v-1.67h-850.9Z"/><path d="M1713.13,2149c-3.4,0-6.55-.07-9.62-.14s-5.76-.12-8.69-.12c-53.14,0-94.76-41.81-94.76-95.19a97.58,97.58,0,0,1,27.09-67.82,94.5,94.5,0,0,1,65.23-29.4v-.15h851.9v2.58l-.4.08c-20.88,3.91-36.87,14.91-47.51,32.68-9.53,15.89-14.56,37.35-14.56,62,0,52.85,21.4,86.4,60.27,94.45l4.77,1H1713.13Zm-19.75-191.82v.12h-.49a93.56,93.56,0,0,0-65,29.11,96.61,96.61,0,0,0-26.81,67.13c0,52.82,41.18,94.19,93.76,94.19,2.94,0,5.74.06,8.71.13,3.57.07,7.25.15,11.31.12h822.83c-36.71-9.65-56.86-43-56.86-94.44,0-24.86,5.08-46.49,14.7-62.55,10.73-17.91,26.8-29,47.77-33.06v-.76Z"/><g class="cls-24"><rect class="cls-25" x="1596.72" y="1980.7" width="955.08" height="9.3"/><rect class="cls-25" x="1596.72" y="2027.67" width="955.08" height="9.3"/><rect class="cls-25" x="1596.72" y="2074.65" width="955.08" height="9.3"/><rect class="cls-25" x="1596.72" y="2098.15" width="955.08" height="9.3"/><rect class="cls-25" x="1596.72" y="2121.63" width="955.08" height="9.3"/><rect class="cls-25" x="1596.72" y="2051.17" width="955.08" height="9.28"/><rect class="cls-25" x="1596.72" y="2004.19" width="955.08" height="9.3"/></g><path class="cls-26" d="M2498.19,830.3H1694.43c-1.13,0-2.27.11-3.41.16v1146c1.14.06,2.28.17,3.41.17h803.76c37.79,0,68.69-30.71,68.69-68.22V898.53C2566.88,861,2536,830.3,2498.19,830.3Z"/><path class="cls-26" d="M1697,1975.76h0C1696.88,1975.74,1696.9,1975.75,1697,1975.76Z"/><path class="cls-26" d="M1699.56,1022.28c1,0,1.9-.1,2.85-.12V830.55c-1.83-.09-3.59-.25-5.41-.25-53.55,0-103.8,31.79-112,77.48-1.82,10.21-2,33.2-1.82,41.28,0,0-2.42,1109.24-2.42,1113.87a95.51,95.51,0,0,0,1.07,13.57v2.94h.52c8.75,50.3,56.66,88.78,114.62,88.78.84,0,1.67-.09,2.56-.12l.28-19.8a26.73,26.73,0,0,1-3.56-.49c3.56.49-1.85-39.21-1.85-87.36s8.28-84.11,2.59-84.69c-.12,0-.14,0,0,0h0c.71.07,5,.45,5.71.48Z"/><path class="cls-7" d="M2549.71,1972.33l-918-12.31,4.61,189.56h918C2474.93,2072,2549.71,1972.33,2549.71,1972.33Z"/><path class="cls-27" d="M1631.66,2077.69c12.25-9.27,154.87-117.15,899.9-73.73,0,0,2.09-17,19.29-32.16l-906.7-20.8Z"/><path class="cls-28" d="M1627.35,1935.56l0,0c-.8.73-1.57,1.49-2.31,2.24a2.43,2.43,0,0,1-.2.25c-.41.43-.86.85-1.22,1.28-17,18.12-82.89,100.25-7.08,216.38,8.34,15.15,23.73,28,52,28H2568.1v-50.35H1677.67s-33.76,3.57-33.76-40.25v-81.06c0-43.81,33.76-40.26,33.76-40.26H2568.1v-50.34H1668.45C1649.59,1921.46,1636.45,1927.22,1627.35,1935.56Z"/><path class="cls-29" d="M1627.35,1935.56l0,0c-.8.73-1.57,1.49-2.31,2.24a2.43,2.43,0,0,1-.2.25c-.41.43-.86.85-1.22,1.28-17,18.12-82.89,100.25-7.08,216.38,8.34,15.15,23.73,28,52,28h164.37v-50.35H1677.67s-33.76,3.57-33.76-40.25v-81.06c0-43.81,33.76-40.26,33.76-40.26h155.15v-50.34H1668.45C1649.59,1921.46,1636.45,1927.22,1627.35,1935.56Z"/><path class="cls-18" d="M1945.15,2056.85c-33.37-6.68-75.27-3.53-75.27-3.53s47.43,31.82,45.16,102l36.22-47.9,50,34.4S1985.51,2072,1945.15,2056.85Z"/><path class="cls-30" d="M1790.32,1054.47h-35.07v-27.2h32.58a15.3,15.3,0,0,0,15.73-15.44,16,16,0,0,0-4.08-10.85q-4.38-4.49-11.65-4.49h-32.58V970.2h35.07q7.86,0,11.85-4.28a16.58,16.58,0,0,0,3.68-10.86q0-7.37-4.28-11.36-4.08-4.08-11.25-4.08h-52.2a16.3,16.3,0,0,0-11,4.28q-4.89,3.89-4.89,12.45v112.36a16.39,16.39,0,0,0,4.49,11.65c3.12,3.13,7.33,4.68,12.65,4.68h51q8.76,0,12.64-4.48,4.1-4.38,4.09-11.45a14.44,14.44,0,0,0-4.09-10.36Q1799,1054.46,1790.32,1054.47Z"/><path class="cls-30" d="M1927.37,938.32c-5.24,0-9.2,1.73-11.85,5.18a19.75,19.75,0,0,0-4.08,12.06v69.32h-.4l-61.36-76.49a73.45,73.45,0,0,0-8.37-7.38,17.53,17.53,0,0,0-8.76-2.19q-7.38,0-11.66,4.88a17.94,17.94,0,0,0-4.28,12.25v112.76a19,19,0,0,0,4.09,12.45,14.32,14.32,0,0,0,11,5.08q8.67,0,13-4.48,5-4.18,5-12.25V999.38l61.36,76.5a46.54,46.54,0,0,0,7.57,7.77,15,15,0,0,0,9.16,2.59q7.77,0,12.25-5.08t4.49-13.25V955.56q0-7.77-4.29-12.45Q1935.45,938.33,1927.37,938.32Z"/><path class="cls-30" d="M2072.8,999h-36.46q-7.36,0-11.65,4.28A16.26,16.26,0,0,0,2020,1014a16.85,16.85,0,0,0,4.68,11,16.32,16.32,0,0,0,12,4.68h19.33a35.79,35.79,0,0,1-3.69,12.25,26.67,26.67,0,0,1-9.76,10.76q-7,4.79-17.53,4.78-12.36,0-20.42-6.57a38.73,38.73,0,0,1-12.05-16.93,65.69,65.69,0,0,1-4.29-21.82q1.1-12.15,2.49-17.13a43.17,43.17,0,0,1,7.37-14.54,37.72,37.72,0,0,1,12-10,36.24,36.24,0,0,1,15.34-3.49,39.26,39.26,0,0,1,18.82,4.28q2.1,1.2,6.87,4.29a67.34,67.34,0,0,0,7.77,4.48,22.34,22.34,0,0,0,7.18,2.09,17.77,17.77,0,0,0,10.35-4.28,12.39,12.39,0,0,0,3.89-9.56,21.71,21.71,0,0,0-5.48-14.55,35.35,35.35,0,0,0-13.25-10.36,64.53,64.53,0,0,0-18-5.52,117.1,117.1,0,0,0-18.92-1.65q-27.09,0-46.92,17.13a69.36,69.36,0,0,0-10.06,11.21,86.28,86.28,0,0,0-8.06,14.09,79.58,79.58,0,0,0-6.78,33.07q0,26.1,11.26,44A69.47,69.47,0,0,0,1977,1071.5a63,63,0,0,0,15.84,10.26,77.81,77.81,0,0,0,30.67,6.57,69.2,69.2,0,0,0,33-8q15.35-7.77,22.91-20.81,11-18.13,11-42.24a23,23,0,0,0-3.69-12.65Q2083.16,999,2072.8,999Z"/><path class="cls-30" d="M2169.32,1054.47h-36.26V956.75q0-17.62-15.94-18.43a19.12,19.12,0,0,0-12.25,4.29Q2100,946.89,2100,956v113.56a15.22,15.22,0,0,0,4.48,10.65q4.59,4.89,12.25,4.88h53a16.19,16.19,0,0,0,10.45-3.68,15.11,15.11,0,0,0,5.08-10.56q0-7.47-4.08-11.85T2169.32,1054.47Z"/><path class="cls-30" d="M2203.58,938.32a17.36,17.36,0,0,0-12,4.29q-4.68,4.38-4.68,13.34v112.76q0,7.77,4.28,12.65t12.85,4.88q8.37-.3,12.05-5.48a19.63,19.63,0,0,0,3.89-12.45V956q0-8.76-4.49-13.34A17.07,17.07,0,0,0,2203.58,938.32Z"/><path class="cls-30" d="M2315.84,1005.06a85,85,0,0,0-16.14-7.37q-11.55-4.08-17.53-5.88-8.76-2.79-12.25-5.28-3.09-2.19-3.09-7.57a10.67,10.67,0,0,1,5.29-8,20.53,20.53,0,0,1,10.47-2.59,56.31,56.31,0,0,1,14.07,2.39,130.79,130.79,0,0,0,12.87,3.08,17.47,17.47,0,0,0,11.22-4.48,14.85,14.85,0,0,0,4.08-10.66q0-8-6.76-13.24a41.94,41.94,0,0,0-15.89-7.18,77.83,77.83,0,0,0-17.35-2A75.53,75.53,0,0,0,2261,940q-28.53,11.06-29.42,40.54,0,11.25,2.89,18.43a30.38,30.38,0,0,0,9,12.45,50.81,50.81,0,0,0,11.52,6.67q6.24,2.6,15.22,5.38,7.77,2.49,9.57,3a53.2,53.2,0,0,1,13.07,6,11.65,11.65,0,0,1,4.89,10,10.6,10.6,0,0,1-5.29,9.57q-4.78,3.18-12.27,3.48a16.28,16.28,0,0,0-3.19-.2,37.74,37.74,0,0,1-10.47-2.29l-3.19-1.09-5.14-1.8L2255,1049a33.37,33.37,0,0,0-10.37-2.29,13.27,13.27,0,0,0-11.07,5.28,25.82,25.82,0,0,0-4.89,12.25q.9,9.76,10.46,14.94,16.53,9.16,39.74,9.16a67.86,67.86,0,0,0,25.25-4.38,50.53,50.53,0,0,0,19-13.15q10.45-12.25,10.46-31.28-.3-12.74-5.08-21.41Q2322.91,1009.35,2315.84,1005.06Z"/><path class="cls-30" d="M2456.58,938.32a17.07,17.07,0,0,0-11.85,4.29q-4.49,4.38-4.48,13.34V995.5h-61.76V956q0-8.76-4.48-13.34a17.11,17.11,0,0,0-11.86-4.29,17.38,17.38,0,0,0-12.05,4.29q-4.68,4.38-4.68,13.34v112.76q0,7.77,4.28,12.65t12.85,4.88q8.37-.3,12-5.48a19.63,19.63,0,0,0,3.89-12.45v-42.63h61.76v43.43a20,20,0,0,0,4.08,12.25c2.65,3.25,6.61,4.88,11.85,4.88q8.18,0,12.85-4.68c2.86-3,4.28-7.21,4.28-12.45V956.35q0-9.26-4.48-13.74A17.65,17.65,0,0,0,2456.58,938.32Z"/><g class="cls-31"><rect class="cls-7" x="1694.43" y="830.3" width="138.39" height="1091.17"/></g><path class="cls-4" d="M1916.73,1478.44a4.88,4.88,0,0,0,2.49.67,5,5,0,0,0,4.33-2.5,253.81,253.81,0,0,1,18.29-27.46,5,5,0,1,0-7.94-6.07,263.46,263.46,0,0,0-19,28.54A5,5,0,0,0,1916.73,1478.44Z"/><path class="cls-4" d="M1960,1425.77a5,5,0,0,0,3.54-1.48,253.51,253.51,0,0,1,24.74-21.81,5,5,0,0,0-6.11-7.92,264.94,264.94,0,0,0-25.72,22.69,5,5,0,0,0,3.55,8.52Z"/><path class="cls-4" d="M1890.08,1602.27a257.31,257.31,0,0,1,2.06-32.4,5,5,0,0,0-9.91-1.27,266.45,266.45,0,0,0-2.14,33.76l5,.45h-5a4.77,4.77,0,0,0,5,4.72A5.22,5.22,0,0,0,1890.08,1602.27Z"/><path class="cls-4" d="M1892.28,1635.71a5,5,0,1,0-9.91,1.31,263,263,0,0,0,6.72,33.63,5,5,0,0,0,4.82,3.7,5.42,5.42,0,0,0,1.31-.17,5,5,0,0,0,3.52-6.13A251.78,251.78,0,0,1,1892.28,1635.71Z"/><path class="cls-4" d="M1892.36,1541.06a5.16,5.16,0,0,0,1.28.16,5,5,0,0,0,4.83-3.71,251.53,251.53,0,0,1,10.53-31.28,5,5,0,1,0-9.23-3.81,260.67,260.67,0,0,0-11,32.53A5,5,0,0,0,1892.36,1541.06Z"/><path class="cls-4" d="M1909.4,1699.27a5,5,0,1,0-9.22,3.84,261.58,261.58,0,0,0,15.23,30.7,5,5,0,0,0,8.64-5A254,254,0,0,1,1909.4,1699.27Z"/><path class="cls-4" d="M2342,1448a5,5,0,0,0,3.95,1.94,4.91,4.91,0,0,0,3.05-1.05,5,5,0,0,0,.89-7,263.67,263.67,0,0,0-22.7-25.69,5,5,0,1,0-7,7.09A255.06,255.06,0,0,1,2342,1448Z"/><path class="cls-4" d="M2013.13,1384.74a5,5,0,0,0,2.51-.68,252.72,252.72,0,0,1,29.52-14.69,5,5,0,1,0-3.86-9.21,263.22,263.22,0,0,0-30.69,15.26,5,5,0,0,0,2.52,9.32Z"/><path class="cls-4" d="M2392.44,1568.31a5,5,0,1,0,9.9-1.33,260.82,260.82,0,0,0-6.79-33.61,5,5,0,0,0-9.65,2.62A250,250,0,0,1,2392.44,1568.31Z"/><path class="cls-4" d="M2141.59,1350h.8a256.82,256.82,0,0,1,32.14,2,4.49,4.49,0,0,0,.64,0,5,5,0,0,0,.62-10,265.79,265.79,0,0,0-33.46-2.11h-.74a5,5,0,0,0,0,10Z"/><path class="cls-4" d="M2206.9,1358.29a249.89,249.89,0,0,1,31.29,10.5,5.1,5.1,0,0,0,1.9.37,5,5,0,0,0,1.9-9.62,262.82,262.82,0,0,0-32.54-10.92,5,5,0,0,0-2.55,9.67Z"/><path class="cls-4" d="M2075.05,1358.86a5,5,0,0,0,1.31-.17,251.37,251.37,0,0,1,32.33-6.49,5,5,0,0,0-1.32-9.91,262.56,262.56,0,0,0-33.62,6.75,5,5,0,0,0,1.3,9.82Z"/><path class="cls-4" d="M2379.79,1507.86a4.86,4.86,0,0,0,1.93-.39,5,5,0,0,0,2.68-6.54,264.81,264.81,0,0,0-15.3-30.67,5,5,0,1,0-8.63,5,254.16,254.16,0,0,1,14.71,29.5A5,5,0,0,0,2379.79,1507.86Z"/><path class="cls-4" d="M2298.33,1402.59a5,5,0,0,0,3-9,264.56,264.56,0,0,0-28.57-19,5,5,0,1,0-5,8.66,253.81,253.81,0,0,1,27.48,18.26A5,5,0,0,0,2298.33,1402.59Z"/><path class="cls-4" d="M2320.86,1780.62a254.74,254.74,0,0,1-24.78,21.77,5,5,0,1,0,6.09,7.92,264.78,264.78,0,0,0,25.76-22.63,5,5,0,1,0-7.07-7.06Z"/><path class="cls-4" d="M2367.79,1726.56a5,5,0,0,0-6.83,1.83,253.25,253.25,0,0,1-18.34,27.42,5,5,0,0,0,.92,7,5,5,0,0,0,7-.92,262.09,262.09,0,0,0,19.08-28.5A5,5,0,0,0,2367.79,1726.56Z"/><path class="cls-4" d="M1942.44,1756.17a5,5,0,0,0-7.92,6.09,262.27,262.27,0,0,0,22.65,25.74,5,5,0,0,0,7.06-7.08A250.8,250.8,0,0,1,1942.44,1756.17Z"/><path class="cls-4" d="M2399.69,1596.21a5,5,0,0,0-5,5v1.07a256.08,256.08,0,0,1-2.13,32.92,5,5,0,0,0,4.31,5.6,4.82,4.82,0,0,0,.65,0,5,5,0,0,0,4.95-4.35,265.58,265.58,0,0,0,2.21-34.3v-1A5,5,0,0,0,2399.69,1596.21Z"/><path class="cls-4" d="M2392.29,1664a5,5,0,0,0-6.12,3.54,249.25,249.25,0,0,1-10.6,31.25,5,5,0,0,0,2.71,6.53,4.93,4.93,0,0,0,1.91.38,5,5,0,0,0,4.62-3.08,262.74,262.74,0,0,0,11-32.5A5,5,0,0,0,2392.29,1664Z"/><path class="cls-4" d="M2077.37,1846.13a253.26,253.26,0,0,1-31.27-10.57,5,5,0,0,0-3.81,9.24,262.15,262.15,0,0,0,32.51,11,4.77,4.77,0,0,0,1.29.17,5,5,0,0,0,1.28-9.82Z"/><path class="cls-4" d="M2016.5,1821a253.33,253.33,0,0,1-27.44-18.32,5,5,0,1,0-6.08,7.93,263.1,263.1,0,0,0,28.53,19,4.88,4.88,0,0,0,2.49.67,5,5,0,0,0,2.5-9.32Z"/><path class="cls-4" d="M2207.92,1846a253.22,253.22,0,0,1-32.35,6.43,5,5,0,0,0,.64,9.95,4.89,4.89,0,0,0,.66,0,261,261,0,0,0,33.64-6.68,5,5,0,1,0-2.59-9.65Z"/><path class="cls-4" d="M2268.68,1820.75a253.31,253.31,0,0,1-29.54,14.62,5,5,0,1,0,3.84,9.22,261.52,261.52,0,0,0,30.71-15.2,5,5,0,1,0-5-8.64Z"/><path class="cls-4" d="M2142.39,1854.58a255.63,255.63,0,0,1-32.66-2.09,5,5,0,0,0-1.28,9.91,266.43,266.43,0,0,0,33.94,2.17h.27a4.88,4.88,0,0,0,4.86-5A5.11,5.11,0,0,0,2142.39,1854.58Z"/><circle class="cls-30" cx="2142.39" cy="1602.27" r="207.65"/><path class="cls-4" d="M2065.84,1488.28c3.62-9.72,15.2-17.64,15.12-29.07-.09-15.19-10.94-4.4-20.91-12.12-8.25-6.38,0-18.43-7.45-23.94-2.61-1.94-6.82-1.49-11.39,0-32.42,15.73-56,38.3-71.91,65,26.65-3.53,5.91,38.72,3.62,48.61-2.77,11.93-2.63,21.11-8.82,32.72-5.67,10.65-8.3,15.84-8.14,28.75.21,16.59-5,66.19,24.22,58.49,24.2-6.37,11-38.24,28.16-52.14,8.14-6.58,18.68-4,23.68-14.53,4.54-9.58-1.4-19.92,6.6-28.8,14.24-15.8,43.72-9.13,54.34-28.13C2075.64,1522.94,2056.11,1514.34,2065.84,1488.28Z"/><path class="cls-32" d="M2047.38,1606.38c-6.16,5.76-14.69-.08-21.17,5.4-2.62,2.22-6.2,24.21-3.7,27.94,8.6,12.83,28.56-24.23,28.91-32.55C2049.66,1605.93,2048.66,1606,2047.38,1606.38Z"/><path class="cls-4" d="M2304.1,1712.05c-4.43-3.56-10.7-3.78-15.91-1.49s-13.25,5.8-22.31,9.67c-13.85,5.92-30.83,1.87-45.31,8.27-22.35,9.88-58.7,50.06-10.44,40.31,5.92-1.19,13.41-5.89,18.91-2.55.48.29.26,12.24,0,24.73a208.42,208.42,0,0,0,82.43-68.2C2309,1718.16,2306,1713.61,2304.1,1712.05Z"/><path class="cls-32" d="M2312.23,1714.59c2.89-1.06,5-4,6.26-7.58q-3,3.85-6.26,7.49Z"/><path class="cls-4" d="M2309.6,1684.47c-6.43,9.28,3,19.5,2.63,30q3.22-3.64,6.26-7.49C2321.88,1697.38,2319.31,1682.71,2309.6,1684.47Z"/><path class="cls-4" d="M2292,1655c-8,6.33-19.52,2.69-27.09,8.93s-6.25,18.28,4.21,22.53c16.36,6.64,15.72-9.49,20.31-18.63,2-4,10.1-8.23,9.81-12.86C2298.75,1647.31,2295.33,1652.35,2292,1655Z"/><path class="cls-4" d="M2223.55,1639.3c-.18,7.34,4.33,15.24,4.24,22.84-.07,5.23-3.92,32.11,8.91,14.28,4.82-6.7.68-35.2-7-42.2C2227.06,1631.78,2223.6,1637.35,2223.55,1639.3Z"/><path class="cls-4" d="M2321.2,1614.64c-1.65-3.92-10.3-5.23-9.73.93,1.18,17.8-12.15,24.08.3,41.47,5.61-5.62,5.7-11.81,6.85-19.76.35-2.37-1.31-7.31-1.17-9.93C2317.7,1622.78,2322.27,1620.53,2321.2,1614.64Z"/><path class="cls-4" d="M2129.2,1501.33c-4.38-6.36-4.86-4.86-6.11-13-1.44-9.41,1.92-17.83-3.33-25.74a28.76,28.76,0,0,0-11.32-9.37l.12,0h-.15c-2.86-1.21-5.68-1.52-7.88-.2-7.49-.12-15.48.61-19,7.48-2.9,5.69-1.52,20.48-3,27.85-5.73,29,12.56,29.06,36,29.06,8.1,0,22.89,4,21.86-7.33C2136.13,1506.32,2131.07,1504,2129.2,1501.33Z"/><path class="cls-4" d="M2329.94,1516.13c-.19-1.5-.52-3.14-.82-4.74a208.46,208.46,0,0,0-73.46-83.11,16,16,0,0,0-1.47,1c-13.94,11.5,3.33,14.77,1,23.94-1.36,5.36-8.28,4-12.26,4.88.88-.19-15.18,1.92-13,2.71a1,1,0,0,1-1.27.74c-.94-11.44-11.89-22.49-22.95-14.6-10.43-10.84,6.75-19.05,8-29.91-6.21-.28-13.76-1.47-18.88,2.49-6.77,5.23-3.4,11.51-12.15,14-1.23.35-5.89-3.4-8.74-2.27-4.37,1.73-4.48,6.23-7,9.8-3.74,5.31-7.29,13.69-12.37,18.14-5.58,4.88-8.87,9.58-12.41,0-3.88-10.49,7.21-10,8.77-18.23,2.18-11.61-22.72-17.46-20.77,1.09-9,.71-15.81-8.32-26.49-7.08-14.23,1.65-9.8,5.71,2.45,9.69,24.5,8,22.32,18.15,28.13,39.69,6.39,23.7,31.67,12.87,32.43,36.6.38,12,4,15,8.18,25.44,4.6,11.42.44,16-2.19,26.58-1.83,7.38-6.82,20.32,2.49,21.86,9.58-4.83,16.74-6.17,21.79-16.95,2.49-5.32-1-7.55,4.85-11.23,4.93-3.1,11,.8,15.74.39,8.82-.77,17-8.55,25.4-2.54,11.63,8.3,1.88,18.31,3.67,27.91s14.86,11.67,17.32,20.29c2.6,9.14-13.43,13.43-11.32,22.1,4.26,17.52,11.53-8.44,13.32-10,3-2.67,10.29-.2,12.52-3,2.11-2.59,1.26-11.46.92-14.89-1-9.63-6.25-15.82,6-19.4,8.72-2.55,19.75,6.69,27.89,2.47,12.81-6.63-1.94-11.28-3.42-18.43-1.88-9.06,8.66-15.56,4.76-25.25,13.63-7.63,13.2,14.82,13.35,22.88,12.56,0,.74-18.82-.48-25C2325.39,1533.83,2331.3,1526.43,2329.94,1516.13Z"/><path class="cls-4" d="M2141,1397.11c-.67-.86-1.48-1.59-2.21-2.39a207.64,207.64,0,0,0-46.5,6,8.14,8.14,0,0,1,5,4.18c4.34,7.6-7.55,19,3.33,22.11,6.43,1.83,7.13-6,12-7.2,4.5-1.1,7.26-.54,11.89-.67,8.42-.23,15.62,5.9,21.11-4.07-1.34-.79-2.34-2.31-4.44-3.29C2141.84,1405,2145.36,1402.7,2141,1397.11Z"/><path class="cls-21" d="M2050.5,1607c-88.16,0-159.63,52.66-159.63,117.63,0,23.45,9.43,45.25,25.48,63.6l-53.4,77.87,100.21-43.08c25.11,12.12,55.08,19.23,87.34,19.23,88.16,0,159.63-52.66,159.63-117.62S2138.66,1607,2050.5,1607Z"/><path class="cls-7" d="M2036.36,1653.58l-54.49,124.24h24.67l11-26.26h60.7l11,26.26h25.56L2061,1653.58Zm-10.3,77.56,22-52.17,21.65,52.17Z"/><path class="cls-18" d="M2427.06,1420.87c0-57-62.72-103.23-140.09-103.23s-140.09,46.22-140.09,103.23S2209.6,1524.1,2287,1524.1c28.31,0,54.62-6.24,76.65-16.88l87.94,37.81-46.86-68.34C2418.79,1460.59,2427.06,1441.45,2427.06,1420.87Z"/><polygon class="cls-7" points="2322.54 1384.46 2322.54 1371.8 2244.42 1371.8 2244.29 1387.56 2298.16 1387.56 2242.67 1453.29 2242.67 1466.09 2323.22 1466.09 2323.22 1450.33 2267.05 1450.33 2322.54 1384.46"/><polygon class="cls-33" points="1009.18 772.08 1141.36 1097.59 1375.83 1002.39 1429.91 874.37 1334.7 639.9 1009.18 772.08"/><path class="cls-23" d="M1193.7,886.51c1.43-.45,2.77-.86,4.14-1.18a10,10,0,0,0-.67-4.09,6.81,6.81,0,0,0-4.1-4c-.74-14.42,0-27.84,3.17-34.61-2.44-2-11.6-2.76-14.48-1.85-2.33,5.94-2.84,22.49-1.94,39.47-6.79,3.25-16.1,8.28-24.41,13,.5-15.67.76-28.25,2-32.76-5.89-4.35-12.9-6.87-19.22-5.55,4.26,20.34,4.78,23.76,5,41.76v4c-3.34,2.23-5.75,4-6.29,4.8a9.44,9.44,0,0,0,6.41,2.26c.41,20.67.42,31.15.08,36.77,5,3.61,9.63,5.58,15.51,4.69-2.69-12.77-4.09-26.66-3.82-44.12,6.92-2.93,16.44-8.67,25.61-13.13,1.13,12,3,23,5.37,28.88,1,2.46,4.89,8.36,7.23,8.29,3.11,0,3.13,4.35,9.48,2.14a15.77,15.77,0,0,1-1.35-2.7C1198.28,920.84,1195.09,903.79,1193.7,886.51Z"/><path class="cls-23" d="M1230.37,908.81c-4.07,1.65-6.93-2.93-8.41-6.58-.39-1-.68-2-1-2.82,15.26-14.67,21.75-25.42,15.69-43.43-4.38-2.46-8.3-3.23-11.7-2.36-14.13,5.74-21.8,32.94-14.68,50.5,3.48,8.58,12,13,22.3,10,6.13-4.25,11.9-13.69,14.89-24.76a13.67,13.67,0,0,0-2.55-1.08C1242.33,895,1238.08,905.68,1230.37,908.81Zm.29-46.29c3.42,10-1.48,22.18-10.52,32.47C1218.17,880.31,1223.28,866.78,1230.66,862.52Z"/><path class="cls-23" d="M1263.49,856.05c-.89-22.47,1.27-40.18,7.06-57.88-1.92-1.35-11-2.64-14.73-1.88-3.74,12-5,31.08-4,58.64.62,17.22,2.34,30.36,4.87,36.57,1.87,4.61,4.48,8.29,6.12,8.62a11.93,11.93,0,0,1,4.15,1.94c.82.79,2.77,1,4.79.42a14.59,14.59,0,0,1-1.37-3.06C1266.72,890.42,1264.28,875.19,1263.49,856.05Z"/><path class="cls-23" d="M1288.78,845.78c-.89-22.47,1.26-40.18,7.06-57.88-1.92-1.35-11-2.64-14.74-1.88-3.73,12-5,31.09-4,58.65.62,17.21,2.34,30.36,4.86,36.57,1.87,4.61,4.49,8.29,6.12,8.62a11.84,11.84,0,0,1,4.15,1.93c.82.79,2.78,1,4.8.42a14,14,0,0,1-1.37-3.06C1292,880.16,1289.56,864.92,1288.78,845.78Z"/><path class="cls-23" d="M1328.61,820c-.65.25-1.25.62-1.89.88-3.66-2.88-7.11-4.59-9.83-4.87-3.33,1.35-6.57,4.41-9.25,8.87-7.08,11.49-8.85,28.3-4.2,39.76,3.91,9.64,11.94,14.37,20.44,11.91a40.43,40.43,0,0,0,14.49-48.8C1335.59,820.91,1332.46,818.45,1328.61,820Zm-7,52.34c-1.56.13-4.48-3.05-5.87-6.48-2.3-5.67-2.43-16.73-.14-25.26,1.66-6,4.83-12.69,10.3-17,1.56,1.11,2.83,3,4.31,6.62C1337,846.9,1333.28,864.4,1321.65,872.36Z"/><polygon class="cls-34" points="1376.11 1002.27 1429.79 874.1 1338.86 911.34 1376.11 1002.27"/><path class="cls-21" d="M1152.17,683.56c-8.64.17-17.93-2.34-22.32-11.54-2.92-6.12-2.35-8.59-8.77-6.66a13.51,13.51,0,0,1-10-1.66c-2.7-1.73-3.68-4.76-4.25-8.09-.49-2.37-1.59-6.93-6-9.47L984.55,874.82c2.62,4.08,7.09,3.37,13.48,7.46,3.54,2.26,6,6,9.13,8.76,1,.85,11.48-.52,14.27-.43,8,.27,16.66,10.31,21.7,15.91,3.51,3.9,8.65,4.35,14.14,3.74L1166,696.47C1162.7,689.51,1159,683.43,1152.17,683.56Z"/><ellipse class="cls-3" cx="2584.16" cy="2361.29" rx="334.66" ry="64.08"/><path class="cls-12" d="M2299.69,1734.24v549.91a89.11,89.11,0,0,0,89.11,89.1h463v-7.71c-22.46-20.4-22.46-60.71,0-81.11V1645.14h-463A89.11,89.11,0,0,0,2299.69,1734.24Z"/><path class="cls-33" d="M2299.7,1727.46V1731h552.13v-17.92h-546C2301.93,1717.54,2299.7,1722.38,2299.7,1727.46Z"/><path class="cls-33" d="M2299.7,2129.2v3.53h552.13v-17.92h-546C2301.93,2119.27,2299.7,2124.11,2299.7,2129.2Z"/><rect class="cls-33" x="2299.7" y="2154.39" width="552.13" height="42.56"/><path class="cls-35" d="M2299.69,1734.24v549.91a89.12,89.12,0,0,0,71.29,87.31V1646.93A89.14,89.14,0,0,0,2299.69,1734.24Z"/><path class="cls-36" d="M2342.84,2283.55a44.87,44.87,0,0,0,0,76.9,88.37,88.37,0,0,0,46,12.8h463v-7.71c-22.46-20.4-22.46-60.71,0-81.11v-13.68h-463A88.37,88.37,0,0,0,2342.84,2283.55Z"/><path class="cls-37" d="M2358.42,2293.78c-28.09,14-28.09,47.39,0,61.41a99.93,99.93,0,0,0,44.55,10.22h448.7c-22.3-20.45-22.25-60.62.16-81v-.87H2403A99.93,99.93,0,0,0,2358.42,2293.78Z"/><path class="cls-38" d="M2348.71,2300.36h491.8a52.28,52.28,0,0,1,3.38-6.36H2358.05A43.41,43.41,0,0,0,2348.71,2300.36Z"/><path class="cls-38" d="M2338,2318.56h497.56a61,61,0,0,1,.88-6.35H2340A30.72,30.72,0,0,0,2338,2318.56Z"/><path class="cls-38" d="M2338,2330.41a30.61,30.61,0,0,0,2,6.36h496.17a61.5,61.5,0,0,1-.69-6.36Z"/><path class="cls-38" d="M2348.71,2348.61a43.41,43.41,0,0,0,9.34,6.36h485.29a52.74,52.74,0,0,1-3.35-6.36Z"/><polygon class="cls-18" points="2518.76 2414.71 2562.72 2383.63 2606.69 2414.71 2606.69 2307.86 2518.76 2307.86 2518.76 2414.71"/><rect class="cls-33" x="2428.41" y="1784.76" width="378.19" height="228.42"/><path class="cls-23" d="M2531.85,1828h-29v69.65h28.47c21.48,0,36.81-14.52,36.81-34.82S2553,1828,2531.85,1828Zm.3,57.91h-15.92v-46.17h15.43c13,0,22.88,9.56,22.88,23.18S2545,1885.93,2532.15,1885.93Z"/><rect class="cls-23" x="2579.86" y="1828.02" width="13.34" height="69.66"/><path class="cls-23" d="M2641.89,1885.73a23.13,23.13,0,1,1,0-46.26c6.86,0,13.92,3.48,18.89,9l7.77-9.76a38.75,38.75,0,0,0-26.87-11.14c-20.79,0-36.81,15.22-36.81,35.13,0,20.1,15.82,35.52,36.31,35.52,10.06,0,20.31-4.68,27.46-11.93l-7.86-8.77A27.83,27.83,0,0,1,2641.89,1885.73Z"/><polygon class="cls-23" points="2671.87 1839.86 2693.57 1839.86 2693.57 1897.67 2707 1897.67 2707 1839.86 2728.69 1839.86 2728.69 1828.02 2671.87 1828.02 2671.87 1839.86"/><path class="cls-23" d="M2572,1930.66,2551,1978.35h9.48l4.22-10.09H2588l4.22,10.09h9.81l-20.64-47.69Zm-4,29.78,8.45-20,8.32,20Z"/><rect class="cls-23" x="2606.06" y="1954.51" width="17.1" height="6.13"/><polygon class="cls-23" points="2670.04 1937.08 2670.04 1930.66 2630.54 1930.66 2630.46 1938.64 2657.71 1938.64 2629.65 1971.88 2629.65 1978.35 2670.38 1978.35 2670.38 1970.38 2641.98 1970.38 2670.04 1937.08"/><ellipse class="cls-3" cx="3519.28" cy="2674.89" rx="462.71" ry="85.11"/><polygon class="cls-39" points="3327.43 2672.57 3383.54 2672.57 3383.54 2453 3327.43 2475.45 3327.43 2672.57"/><path class="cls-40" d="M3217.24,2377.27s3.06,90.89-15.3,143-29.86,111.78-21.82,136.27,46.31,110.95,147.31,26.78c74.67-62.22,62.74-312.77,62.74-312.77Z"/><path class="cls-40" d="M3848.75,2567.86c-69.44-40.79-66-180.5-66-180.5L3618.32,2368l-27.5,304.61h58.42l25.35-72.75,35.28,72.75h224.86C3938,2642.81,3918.2,2608.64,3848.75,2567.86Z"/><path class="cls-41" d="M3713.62,1685.85c-51.55-244-97-326.83-97-326.83l-54.62,1.33-61.37,1.49-54,1.31-46,1.12,1.13,7.26,3.1,19.93,4.8,30.8,65.12,418.14,89,571.29,255.73-16s-1.8-14.77-5-40.31C3799.05,2233.19,3751.34,1864.33,3713.62,1685.85Z"/><path class="cls-42" d="M3519.28,1795.25c13-175-8.57-360.57-18.65-433.41l-54,1.31c-14,9.47-28.91,19.57-41.78,28.31l4.8,30.8,65.12,418.14,89,571.29,255.73-16s-1.8-14.77-5-40.31C3585.16,2412.83,3502.88,2015.18,3519.28,1795.25Z"/><polygon class="cls-7" points="3262.8 1338.63 3266.1 1379.41 3616.63 1359.02 3607.81 1324.3 3262.8 1338.63"/><path class="cls-21" d="M3596.72,1147.88c.53-28.2,1.58-80.74-16-128.91q-2.7-7.41-6-14.65c-39.22-85.28-176.1-94.94-251.89-39.59-61.82,45.15-79.74,135.49-78.63,171s16.62,204,16.62,204l347-14.42s-7.9-76.24-10.41-137.18C3596.79,1173.34,3596.51,1159.52,3596.72,1147.88Z"/><path class="cls-43" d="M3469.68,1367.57l-68,4-135.61,7.89s-29.38,347.86-58,599.17-27.94,433.1-27.94,433.1h253.53s.55-8.1,1.54-22.55c5.69-82.93,25.88-375.19,39.54-548.74,3.26-41.37,6.15-76,8.38-99.43,1.5-97.67-7.31-266.89-11.41-339.12C3470.48,1380.46,3469.68,1367.57,3469.68,1367.57Z"/><path class="cls-44" d="M3452.49,904.2a65,65,0,0,1-1.31-18.74L3436.75,881s-24.66,7.48-37.09,9c-.56.07-1.09.12-1.59.17l0,.1c1.37,3.77,2.44,9.8,2.88,16.44.1,1.56.17,3.16.19,4.78.14,9.44-1.11,19.34-4.72,25.35,18,8.73,60.53,6.51,69.47-4.6a77.87,77.87,0,0,1-12.18-23.34C3453.25,907.31,3452.83,905.74,3452.49,904.2Z"/><path class="cls-45" d="M3451.18,885.46,3436.75,881s-24.66,7.48-37.09,9l-1.55.27c1.37,3.77,2.44,9.8,2.88,16.44.1,1.56.17,3.16.19,4.78,16.86,2.84,38.29,1.84,52.57-2.59-.5-1.61-.92-3.18-1.26-4.72A65,65,0,0,1,3451.18,885.46Z"/><path class="cls-4" d="M3694.18,916.83c.09-12.55.72-25.14,1-37.69,1.58-62.65,2.9-156.23-59.34-192.83-84.07-49.33-134.94,6.21-134.94,6.21s-19.84,30.53,15.76,35.6a85.18,85.18,0,0,0,15.86.63c30.71-1.27,36.69,20.75,40.22,46.48a156.07,156.07,0,0,1,.09,41.08c-2.26,16.54-8.74,31.76-5.66,48.61,2.58,14,6.7,28.58,15.72,40,8.06,10.19,17,16.76,21.42,29.76,17.26,50.69-12.27,119.59,29.22,161.08,15.81,15.81,32.48,8.15,45.75-5.66,11.28-11.74,20.16-27.86,24-37.92,4.53-11.55,12.91-21.24,16.08-33.38,4.31-16.35-1.54-32.93-9-47.43C3701.06,953.29,3694,937.39,3694.18,916.83Z"/><path class="cls-46" d="M3642.86,1078.58c-14.41-17.35-1.23-77.5-.05-111.61s-17.35-60.7-24.28-72.84-17.35-33.56-10.37-70.57-12.19-75.74-33-99.15-59-3.18-59-3.18.18,2.54.54,6.89a85.18,85.18,0,0,0,15.86.63c30.71-1.27,36.69,20.75,40.22,46.48a156.07,156.07,0,0,1,.09,41.08c-2.26,16.54-8.74,31.76-5.66,48.61,2.58,14,6.7,28.58,15.72,40,8.06,10.19,17,16.76,21.42,29.76,17.26,50.69-12.27,119.59,29.22,161.08,15.81,15.81,32.48,8.15,45.75-5.66A35,35,0,0,1,3642.86,1078.58Z"/><path class="cls-21" d="M3499.4,688.09c-7.68,7.67-3.93,23.87,8.36,36.17s28.5,16,36.17,8.36,3.94-23.87-8.36-36.17S3507.08,680.41,3499.4,688.09Z"/><path class="cls-44" d="M3490.84,808.12c6.09-61.88-108.52-128.22-140.22-43.69,0,0-.14,43-9.56,67.28,1.66,20.52,12.22,39.81,25.85,51.09,35.37,29.26,80.79,19.68,101.68,4.34s25.94-32.45,25.94-32.45,24.39,4.39,29.95-16.37C3530.39,818.17,3518.91,791.23,3490.84,808.12Z"/><path class="cls-4" d="M3420.73,680.75c-57.27,7.5-73.34,39.39-72.74,87.07,21.6,5.49,79.9-9.15,94.19-26,11.8,22.54,32.67,34.77,40.68,45.69s8,20.6,8,20.6c19-5.1,33.73,7.33,33.68,18.77,13.59-.72,41.78-25.45,33.29-67.46C3546.81,713.15,3490.33,669.13,3420.73,680.75Z"/><path class="cls-47" d="M3379.76,807.05c-3.5,0-6.36,3.05-6.4,6.89s2.77,7,6.27,7,6.36-3.06,6.39-6.9S3383.26,807.08,3379.76,807.05Z"/><path d="M3392,792.88a37.63,37.63,0,0,0-23.81-3.11c-1.89.37-1.09,3.26.8,2.89a34.24,34.24,0,0,1,21.5,2.81C3392.19,796.31,3393.71,793.72,3392,792.88Z"/><path d="M3340.09,833.52l1-1.2a10.55,10.55,0,0,1-1-.92Z"/><path d="M3352.82,812.86q-7.31,9.36-14.85,18.54a1.54,1.54,0,0,0,0,2.12c3.24,3.5,8.24,4.41,11.58,7.74a1.5,1.5,0,0,0,2.12-2.12c-3-3-7.43-4.08-10.61-6.82l-1,1.2V831.4a10.55,10.55,0,0,0,1,.92q7-8.6,13.88-17.34C3356.12,813.47,3354,811.34,3352.82,812.86Z"/><path d="M3384.64,844.8a1.51,1.51,0,0,0-2,.54,16.27,16.27,0,0,1-15.69,9.83c-1.92-.11-1.92,2.89,0,3a19.17,19.17,0,0,0,18.28-11.32A1.56,1.56,0,0,0,3384.64,844.8Z"/><path class="cls-48" d="M3401.71,1371.53l-135.61,7.89s-29.38,347.86-58,599.17-27.94,433.1-27.94,433.1h253.53s.55-8.1,1.54-22.55c-78.14-4.75-250.6-58-204.3-443.91,10.24-85.37,21.74-170.74,37.91-255.22,10.38-54.19,21.9-109.34,42.45-160.75,27.2-68,90.38-112.7,160.45-127.41a536.17,536.17,0,0,1,80.76-10.15l9.54-31.35-161.42,3.92Z"/><path class="cls-44" d="M2901.56,831.9a233.93,233.93,0,0,0,8.65,30A268.49,268.49,0,0,0,2901.56,831.9Z"/><path class="cls-44" d="M2884.14,878.73c1.56,4.2,3.29,8.33,5.17,12.28A132.06,132.06,0,0,0,2884.14,878.73Z"/><path class="cls-44" d="M2876.37,920.43c1.07,2.06,2.17,4,3.29,5.72C2878.57,924.07,2877.47,922.17,2876.37,920.43Z"/><path class="cls-44" d="M2956,873.12c-16.11-33-35.26-78-52.87-65.49-4.4,3.13-3.76,13.46-1.58,24.27a268.49,268.49,0,0,1,8.65,30,233.93,233.93,0,0,1-8.65-30c-3.94-10.73-8.83-20.29-13.84-20.59-17.51-1-15.42,35.52-3.58,67.42a132.06,132.06,0,0,1,5.17,12.28c-1.88-4-3.61-8.08-5.17-12.28-7.58-15.58-15.43-21.79-21.13-19.86-6.11,2.07,1.91,39.57,13.36,61.56,1.1,1.74,2.2,3.64,3.29,5.72-1.12-1.74-2.22-3.66-3.29-5.72-10.79-17.08-21.28-18-25.09-14.64-7.8,6.88-.79,40.48,38,68.89s107.34-39.91,107.34-39.91-15.38-79.58-18.49-93.82S2952.57,843.45,2956,873.12Z"/><path class="cls-45" d="M2942.29,885.2a43.32,43.32,0,0,0-2.5,3.92l-1.13,2-1,2.1a42.38,42.38,0,0,0-1.72,4.33l-.39,1.1-.32,1.11-.63,2.25a132,132,0,0,0-2.6,18.13c-.25,3-.41,6.08-.45,9.13,0,1.52,0,3.05.11,4.57a21.7,21.7,0,0,0,.64,4.54,14.33,14.33,0,0,1,0-2.27q.06-1.12.18-2.25c.14-1.5.32-3,.53-4.49.38-3,.86-6,1.31-8.95l1.46-8.92c.48-3,1-5.9,1.71-8.76a59.94,59.94,0,0,1,6.72-16.29A50.17,50.17,0,0,1,2956,873.12C2950.49,875.77,2945.93,880.22,2942.29,885.2Z"/><path class="cls-45" d="M2910.29,857l-2-5.6c-.71-1.85-1.37-3.72-2.13-5.55-1.47-3.68-3-7.33-4.88-10.89A118.89,118.89,0,0,0,2904,846.6c.5,1.92,1.1,3.81,1.65,5.71l1.82,5.65q1.88,5.64,4.09,11.15a116,116,0,0,0,4.88,10.88,115.84,115.84,0,0,0-2.66-11.62C2912.7,864.55,2911.56,860.76,2910.29,857Z"/><path class="cls-45" d="M2894,896.46l-2.41-5.15c-.85-1.69-1.66-3.41-2.56-5.08a111.25,111.25,0,0,0-5.73-9.89,111.18,111.18,0,0,0,3.6,10.85c.65,1.78,1.4,3.52,2.11,5.29l2.25,5.21q2.33,5.19,5,10.24a108.69,108.69,0,0,0,5.73,9.88,107.53,107.53,0,0,0-3.6-10.84Q2896.31,901.65,2894,896.46Z"/><path class="cls-45" d="M2883.58,929.91c-1.56-2.72-3.2-5.4-5-8a76.2,76.2,0,0,0-5.69-7.59,76.79,76.79,0,0,0,3.66,8.75c1.35,2.84,2.83,5.61,4.39,8.33s3.19,5.4,4.95,8a76.2,76.2,0,0,0,5.69,7.59,74.26,74.26,0,0,0-3.65-8.75Q2885.93,934,2883.58,929.91Z"/><path class="cls-5" d="M3125.55,1115.06a19.44,19.44,0,0,1-30.93-5.62L3007,928.09l-133.32,53.09,126.79,253.57c34.28,68.58,124.53,85.55,181.38,34.11l53.47-48.37c-12.45,131.24-15.86,249.9-15.86,249.9s78.22,14.33,133.08-99.16c45.08-93.27,26.47-325,37.11-403.66,1.5-11.1,6.26-21.62,8.91-32.48.17-.71-.07-5.9.83-6.06-23.33,4.14-111.65,23.89-180.84,94C3173,1069.19,3143,1098.39,3125.55,1115.06Z"/><path class="cls-5" d="M3737.64,1115.06c-17.47-16.67-47.45-45.87-93-92-69.19-70.14-157.51-89.89-180.84-94,.9.16.67,5.35.84,6.06,2.65,10.86,7.4,21.39,8.9,32.48,10.62,78.71-8,310.39,37.11,403.66,54.86,113.48,157.51,91.18,157.51,91.18s-27.84-110.68-40.29-241.92l53.47,48.37c86.8,83,300.62-149.66,300.62-149.66L3864.07,1043S3747.18,1124.17,3737.64,1115.06Z"/><polygon class="cls-49" points="3814.19 986.4 3932.81 1109.66 4089.85 907.15 3971.23 783.89 3814.19 986.4"/><path class="cls-50" d="M3950.53,773.36l-157,202.52,118.62,123.26,172.65-192a372.91,372.91,0,0,1-36.48-24.34C4001.31,847.28,3970.44,806.42,3950.53,773.36Z"/><path class="cls-51" d="M3911.4,787.36,3781.07,1008l133.18,107.37,170.51-208.26a217.25,217.25,0,0,1-22.43-4.64C3986.7,882.63,3937.87,826.09,3911.4,787.36Z"/><path class="cls-52" d="M3901.63,791.38,3771.31,1012l133.17,107.37L4075,911.14a217.25,217.25,0,0,1-22.43-4.64C3976.93,886.65,3928.11,830.11,3901.63,791.38Z"/><path class="cls-18" d="M3730.15,1121.27l191.9,2.19,161.43-207.12L3916,917Z"/><path class="cls-44" d="M4004.27,1021.23a12.94,12.94,0,0,0-4.14.06l-.06.08Z"/><path class="cls-44" d="M3956.78,1066.58a47.69,47.69,0,0,0,4.89,3.37S3959.55,1068.3,3956.78,1066.58Z"/><path class="cls-44" d="M3972.3,1054.88c1.55.53,2.57.81,2.57.81S3973.88,1055.35,3972.3,1054.88Z"/><path class="cls-44" d="M4000.13,1021.29a12.94,12.94,0,0,1,4.14-.06l-4.2.14.06-.08c-10.77,1.2-38.27,7.78-42.53,17.16-4,8.83,9,14.43,14.7,16.43,1.58.47,2.57.81,2.57.81s-1-.28-2.57-.81c-5.62-1.67-18.69-4.91-21.68.06-2.31,3.86,2.22,8.54,6.16,11.64,2.77,1.72,4.89,3.37,4.89,3.37a47.69,47.69,0,0,1-4.89-3.37c-4.61-2.86-11-5.93-12.45-1.95-.79,2.21-.28,5.3.73,8.39a114.94,114.94,0,0,1,5.61,11.75,62.68,62.68,0,0,1-5.61-11.75c-2.27-4-4.66-6.93-5.93-4.82-6.22,10.29,1.88,27.76,3.67,32.1s21.7,5.83,34.52.55c34.69-14.28,60.53-63.93,37.77-98.75C4013.66,1003.94,4001.07,1020.1,4000.13,1021.29Z"/><path class="cls-44" d="M3945.06,1073a62.68,62.68,0,0,0,5.61,11.75A114.94,114.94,0,0,0,3945.06,1073Z"/><path class="cls-45" d="M3998.77,1055.61c-.62.12-1.25.19-1.88.25s-1.26.15-1.89.16c-2.52.18-5.06.16-7.59.09s-5.07-.27-7.6-.47c-1.27-.09-2.54-.23-3.8-.37s-2.53-.28-3.81-.43a58.7,58.7,0,0,0,7.52,1.56,63.21,63.21,0,0,0,7.66.71,47.09,47.09,0,0,0,7.69-.32,26.78,26.78,0,0,0,7.44-2l-1.86.44C4000,1055.44,3999.39,1055.5,3998.77,1055.61Z"/><path class="cls-45" d="M3971.68,1073.93a56.32,56.32,0,0,1-7.69-3.13,53.24,53.24,0,0,1-7.21-4.22,32.17,32.17,0,0,0,3.27,2.66c1.16.79,2.35,1.54,3.58,2.24a42.38,42.38,0,0,0,7.74,3.4c.66.24,1.34.43,2,.61s1.35.38,2,.52a37,37,0,0,0,4.17.69c1.4.19,2.81.24,4.21.29.71,0,1.41,0,2.11-.06s1.4-.08,2.1-.13a65.54,65.54,0,0,1-8.31-.86A54.15,54.15,0,0,1,3971.68,1073.93Z"/><path class="cls-45" d="M3960.42,1092.45a28.42,28.42,0,0,1-2.57-2.46,63.37,63.37,0,0,1-4.6-5.47c-1.46-1.88-2.85-3.83-4.22-5.79-.69-1-1.37-2-2-3l-2-3a60.72,60.72,0,0,0,3.4,6.37,65.81,65.81,0,0,0,4.08,6,42.13,42.13,0,0,0,4.85,5.41,17.36,17.36,0,0,0,6.05,4c-.51-.32-1-.64-1.53-.94Z"/><path class="cls-53" d="M3219.42,1470.39c50.95-50.49,50.73-296,50.73-296l-34.87,46.13C3222.83,1351.73,3219.42,1470.39,3219.42,1470.39Z"/><path class="cls-54" d="M2881.77,640.67H2594.63a56.13,56.13,0,0,0-56.13,56.13v1.13a56.18,56.18,0,0,0,37,52.78l-31,57.47,72-54.12h265.32a56.14,56.14,0,0,0,56.13-56.13V696.8A56.14,56.14,0,0,0,2881.77,640.67Z"/><path class="cls-7" d="M2637.05,694.77c0-9.64-6.44-15.09-17.78-15.09H2601V723.5h8.39V710.61h9.89a11.27,11.27,0,0,0,1.57-.07l7.57,13H2638L2628.35,709C2634,706.6,2637.05,701.65,2637.05,694.77Zm-17.78,8.45h-9.89V687h9.89c6.26,0,9.77,2.64,9.77,8S2625.53,703.22,2619.27,703.22Z"/><polygon class="cls-7" points="2654.64 705.16 2675.92 705.16 2675.92 697.84 2654.64 697.84 2654.64 687 2678.36 687 2678.36 679.68 2646.25 679.68 2646.25 723.5 2679.12 723.5 2679.12 716.18 2654.64 716.18 2654.64 705.16"/><path class="cls-7" d="M2701.4,679.68l-19.22,43.82h8.7l3.88-9.26h21.41l3.88,9.26h9l-19-43.82ZM2697.77,707l7.76-18.41,7.64,18.41Z"/><path class="cls-7" d="M2752.6,679.68h-18.22V723.5h17.91c13.52,0,23.16-9.14,23.16-21.91S2765.87,679.68,2752.6,679.68Zm.19,36.44h-10v-29h9.71c8.2,0,14.4,6,14.4,14.58S2760.86,716.12,2752.79,716.12Z"/><rect class="cls-7" x="2782.77" y="679.68" width="8.39" height="43.82"/><polygon class="cls-7" points="2832.47 709.67 2809.88 679.68 2801.92 679.68 2801.92 723.5 2810.13 723.5 2810.13 693.58 2832.66 723.5 2840.61 723.5 2840.61 679.68 2832.47 679.68 2832.47 709.67"/><path class="cls-7" d="M2871.59,686.88a18.82,18.82,0,0,1,12.4,4.94l4.76-6.13a26.93,26.93,0,0,0-17.16-6.26c-13.39,0-23.66,9.58-23.66,22.16s10.08,22.29,23.16,22.29a30.66,30.66,0,0,0,17.34-5.7V701.72h-7.32v11.89a20.19,20.19,0,0,1-9.45,2.76,14.75,14.75,0,1,1-.07-29.49Z"/><path class="cls-18" d="M3910.12,429.8H3560.76a68.3,68.3,0,0,0-68.3,68.3v1.38a68.32,68.32,0,0,0,45,64.21l-37.74,69.94,87.61-65.85h322.81a68.3,68.3,0,0,0,68.3-68.3V498.1A68.3,68.3,0,0,0,3910.12,429.8Z"/><path class="cls-7" d="M3553.49,487.22c0-3.28,3.12-5,7.92-5,4.11,0,10.28,1.75,16,5.17l4.12-8.83a36.3,36.3,0,0,0-19.27-5.64c-12,0-20,5.94-20,15.24,0,19,28.64,12.64,28.64,23.76,0,3.74-3.43,5.87-9.14,5.87s-12.95-3-18.43-7.85l-4.27,8.61a34.6,34.6,0,0,0,22.55,8.53c11.73,0,20.41-5.79,20.41-15.77C3582.13,492.17,3553.49,498,3553.49,487.22Z"/><path class="cls-7" d="M3613.58,473.35h-21.86v53.32h10.21V511h11.65c13.41,0,21.1-7.08,21.1-19.27C3634.68,480,3627,473.35,3613.58,473.35Zm-.53,28.64h-11.12V482.26h11.12c7.62,0,12,3.2,12,9.75C3625,498.72,3620.67,502,3613.05,502Z"/><polygon class="cls-7" points="3653.34 504.35 3679.23 504.35 3679.23 495.44 3653.34 495.44 3653.34 482.26 3682.2 482.26 3682.2 473.35 3643.13 473.35 3643.13 526.67 3683.12 526.67 3683.12 517.76 3653.34 517.76 3653.34 504.35"/><path class="cls-7" d="M3710.23,473.35l-23.39,53.32h10.59l4.73-11.27h26.05l4.72,11.27h11l-23.08-53.32Zm-4.42,33.29,9.45-22.4,9.29,22.4Z"/><polygon class="cls-7" points="3796.6 473.35 3784.72 473.35 3760.57 499.4 3760.57 473.35 3750.36 473.35 3750.36 526.67 3760.57 526.67 3760.57 513.27 3769.1 503.82 3785.71 526.67 3798.05 526.67 3776.26 495.9 3796.6 473.35"/><rect class="cls-7" x="3805.66" y="473.35" width="10.21" height="53.32"/><polygon class="cls-7" points="3866.14 509.84 3838.64 473.35 3828.96 473.35 3828.96 526.67 3838.94 526.67 3838.94 490.26 3866.36 526.67 3876.04 526.67 3876.04 473.35 3866.14 473.35 3866.14 509.84"/><path class="cls-7" d="M3913.73,482.11a22.82,22.82,0,0,1,15.09,6l5.79-7.47a32.79,32.79,0,0,0-20.88-7.61c-16.3,0-28.79,11.65-28.79,27s12.27,27.12,28.19,27.12a37.41,37.41,0,0,0,21.1-6.93v-20h-8.92v14.48a24.6,24.6,0,0,1-11.5,3.35c-10.28,0-18.43-7.85-18.43-18S3903.45,482.11,3913.73,482.11Z"/><path class="cls-26" d="M1148.94,1352.37H714.45a84.93,84.93,0,0,0-84.93,84.94V1439A84.93,84.93,0,0,0,714.45,1524h401.47l109,81.89-46.94-87a85,85,0,0,0,55.94-79.86v-1.71A84.94,84.94,0,0,0,1148.94,1352.37Z"/><polygon class="cls-23" points="797.01 1459.7 781.76 1407.51 769.25 1407.51 754.09 1459.7 738.84 1407.51 725.2 1407.51 747.18 1473.82 760.25 1473.82 775.22 1424.08 790 1473.82 803.17 1473.82 825.14 1407.51 812.07 1407.51 797.01 1459.7"/><path class="cls-23" d="M887,1430.33c0-14.58-9.76-22.83-26.9-22.83H832.42v66.32h12.7V1454.3h15a19.92,19.92,0,0,0,2.36-.09l11.47,19.61h14.49l-14.59-22C882.35,1448.24,887,1440.76,887,1430.33Zm-26.9,12.79h-15v-24.53h15c9.47,0,14.77,4,14.77,12.12C874.86,1439.05,869.56,1443.12,860.09,1443.12Z"/><rect class="cls-23" x="900.9" y="1407.5" width="12.69" height="66.31"/><polygon class="cls-23" points="922.5 1418.78 943.15 1418.78 943.15 1473.82 955.94 1473.82 955.94 1418.78 976.59 1418.78 976.59 1407.51 922.5 1407.51 922.5 1418.78"/><rect class="cls-23" x="985.58" y="1407.5" width="12.69" height="66.31"/><polygon class="cls-23" points="1060.8 1452.88 1026.6 1407.51 1014.57 1407.51 1014.57 1473.82 1026.98 1473.82 1026.98 1428.54 1061.08 1473.82 1073.11 1473.82 1073.11 1407.51 1060.8 1407.51 1060.8 1452.88"/><path class="cls-23" d="M1120,1418.4a28.43,28.43,0,0,1,18.76,7.48l7.2-9.28a40.74,40.74,0,0,0-26-9.48c-20.27,0-35.81,14.5-35.81,33.54s15.26,33.72,35.06,33.72a46.48,46.48,0,0,0,26.24-8.61v-24.92h-11.09v18a30.58,30.58,0,0,1-14.3,4.16c-12.79,0-22.93-9.75-22.93-22.35S1107.21,1418.4,1120,1418.4Z"/><path class="cls-4" d="M3252.42,1659.51H2997.25l-69.25-52,29.83,55.28a54,54,0,0,0-35.55,50.76v1.09a54,54,0,0,0,54,54h276.16a54,54,0,0,0,54-54v-1.09A54,54,0,0,0,3252.42,1659.51Z"/><polygon class="cls-7" points="2964.74 1691.67 2956.67 1691.67 2956.67 1733.82 2982.92 1733.82 2982.92 1726.54 2964.74 1726.54 2964.74 1691.67"/><rect class="cls-7" x="2989.24" y="1691.67" width="8.07" height="42.15"/><path class="cls-7" d="M3015.24,1702.63c0-2.59,2.47-4,6.27-4,3.25,0,8.12,1.38,12.64,4.09l3.25-7a28.65,28.65,0,0,0-15.23-4.46c-9.45,0-15.78,4.7-15.78,12,0,15,22.64,10,22.64,18.79,0,2.95-2.71,4.64-7.22,4.64s-10.24-2.35-14.57-6.21l-3.38,6.81a27.41,27.41,0,0,0,17.83,6.74c9.27,0,16.13-4.57,16.13-12.46C3037.88,1706.55,3015.24,1711.18,3015.24,1702.63Z"/><polygon class="cls-7" points="3040.77 1698.84 3053.9 1698.84 3053.9 1733.82 3062.03 1733.82 3062.03 1698.84 3075.15 1698.84 3075.15 1691.67 3040.77 1691.67 3040.77 1698.84"/><polygon class="cls-7" points="3088.93 1716.18 3109.41 1716.18 3109.41 1709.13 3088.93 1709.13 3088.93 1698.72 3111.75 1698.72 3111.75 1691.67 3080.86 1691.67 3080.86 1733.82 3112.48 1733.82 3112.48 1726.78 3088.93 1726.78 3088.93 1716.18"/><polygon class="cls-7" points="3150.04 1720.52 3128.31 1691.67 3120.66 1691.67 3120.66 1733.82 3128.55 1733.82 3128.55 1705.04 3150.22 1733.82 3157.87 1733.82 3157.87 1691.67 3150.04 1691.67 3150.04 1720.52"/><rect class="cls-7" x="3168.22" y="1691.67" width="8.07" height="42.15"/><polygon class="cls-7" points="3216.03 1720.52 3194.29 1691.67 3186.64 1691.67 3186.64 1733.82 3194.53 1733.82 3194.53 1705.04 3216.21 1733.82 3223.85 1733.82 3223.85 1691.67 3216.03 1691.67 3216.03 1720.52"/><path class="cls-7" d="M3253.65,1698.6a18,18,0,0,1,11.92,4.75l4.58-5.9a25.93,25.93,0,0,0-16.5-6c-12.88,0-22.76,9.21-22.76,21.32s9.69,21.43,22.28,21.43a29.48,29.48,0,0,0,16.68-5.48v-15.83h-7v11.44a19.48,19.48,0,0,1-9.09,2.65,14.18,14.18,0,1,1-.06-28.36Z"/><ellipse class="cls-3" cx="1478.82" cy="2318.56" rx="266.73" ry="64.08"/><path class="cls-55" d="M1468.23,1740.09c-134.83,0-245.81,23.71-259.8,54.14a15.37,15.37,0,0,0-1.2,3.66l.62,8c11.19,31.1,123.5,55.54,260.38,55.54,137,0,249.44-24.49,260.4-55.65l.6-7.82a15.62,15.62,0,0,0-1.21-3.69C1714,1763.8,1603.05,1740.09,1468.23,1740.09Z"/><path class="cls-18" d="M1385,2227.24c-6.11,18.94,2.26,40,18.69,47.06l12.87,5.53c16.45,7,34.72-2.63,40.85-21.56l187-579.81-72.41-31Z"/><path class="cls-22" d="M1385,2227.24c-6.11,18.94,2.26,40,18.69,47.06l12.87,5.53c16.45,7,34.72-2.63,40.85-21.56l6.85-21.31-72.41-31Z"/><polygon class="cls-56" points="1644.16 1678.33 1655.28 1514.64 1571.7 1647.61 1644.16 1678.33"/><polygon class="cls-18" points="1652.43 1556.49 1655.28 1514.64 1633.95 1548.56 1652.43 1556.49"/><path class="cls-57" d="M1266.15,1155.77l90,1136.59,137.66-10.92-90-1136.57Zm75.77,82.28a25.33,25.33,0,1,1,23.23-27.24A25.27,25.27,0,0,1,1341.92,1238.05Z"/><rect class="cls-7" x="1276.01" y="1271.33" width="80.39" height="13.63" transform="translate(-107.92 121.47) rotate(-5.08)"/><rect class="cls-7" x="1279.51" y="1311.28" width="57.58" height="13.63" transform="translate(-111.43 120.86) rotate(-5.07)"/><rect class="cls-7" x="1282.93" y="1349.22" width="80.39" height="13.61" transform="translate(-114.73 122.32) rotate(-5.07)"/><rect class="cls-7" x="1285.16" y="1401.87" width="80.39" height="13.63" transform="translate(-119.38 122.72) rotate(-5.07)"/><rect class="cls-7" x="1288.66" y="1441.84" width="57.58" height="13.61" transform="translate(-122.95 122.18) rotate(-5.07)"/><rect class="cls-7" x="1292.07" y="1479.77" width="80.39" height="13.63" transform="translate(-126.25 123.65) rotate(-5.07)"/><rect class="cls-7" x="1297.6" y="1541.98" width="80.39" height="13.63" transform="translate(-131.72 124.37) rotate(-5.07)"/><rect class="cls-7" x="1301.1" y="1581.93" width="57.58" height="13.63" transform="translate(-135.34 123.88) rotate(-5.08)"/><rect class="cls-7" x="1304.51" y="1619.88" width="80.39" height="13.61" transform="translate(-138.59 125.29) rotate(-5.07)"/><rect class="cls-7" x="1306.98" y="1675.46" width="80.41" height="13.63" transform="translate(-143.56 125.79) rotate(-5.08)"/><rect class="cls-7" x="1310.49" y="1715.43" width="57.58" height="13.61" transform="matrix(1, -0.09, 0.09, 1, -147.06, 125.19)"/><rect class="cls-7" x="1313.9" y="1753.36" width="80.41" height="13.63" transform="translate(-150.41 126.69) rotate(-5.08)"/><rect class="cls-7" x="1316.81" y="1813.69" width="80.39" height="13.61" transform="translate(-155.68 127.14) rotate(-5.07)"/><rect class="cls-7" x="1320.31" y="1853.64" width="57.58" height="13.63" transform="translate(-159.24 126.59) rotate(-5.07)"/><rect class="cls-7" x="1323.73" y="1891.57" width="80.39" height="13.63" transform="matrix(1, -0.09, 0.09, 1, -162.55, 128.07)"/><rect class="cls-7" x="1331.03" y="1973.83" width="80.39" height="13.61" transform="translate(-169.85 129.08) rotate(-5.08)"/><rect class="cls-7" x="1334.53" y="2013.78" width="57.58" height="13.63" transform="translate(-173.34 128.48) rotate(-5.07)"/><rect class="cls-7" x="1337.95" y="2051.71" width="80.39" height="13.63" transform="translate(-176.63 129.93) rotate(-5.07)"/><rect class="cls-7" x="1340.17" y="2103.55" width="80.41" height="13.63" transform="translate(-181.21 130.34) rotate(-5.07)"/><rect class="cls-7" x="1343.67" y="2143.52" width="57.58" height="13.61" transform="translate(-184.85 129.85) rotate(-5.08)"/><rect class="cls-7" x="1347.08" y="2181.45" width="80.41" height="13.63" transform="translate(-188.07 131.25) rotate(-5.07)"/><polygon class="cls-58" points="1403.83 1144.87 1493.77 2280.32 1548.01 2276.03 1458.07 1140.56 1403.83 1144.87"/><path class="cls-19" d="M1658,1842.43c-47.62,11.68-115,19-189.74,19-136.88,0-249.19-24.44-260.38-55.54l32.23,407.55c5,63.73,46.38,113.21,97.38,118.71h0a84.57,84.57,0,0,0,9.45.52h243.56c55.39,0,101.69-51.81,106.89-119.61l31.23-407.27C1723.65,1819.92,1697.69,1832.7,1658,1842.43Z"/><path class="cls-59" d="M1347,2332.63h2.48q-5.88-.18-11.93-.52A84.57,84.57,0,0,0,1347,2332.63Z"/><path class="cls-60" d="M1658,1842.43l-26.32,312.85s-23.37,169.57-249.3,177.35h208.16c55.39,0,101.69-51.81,106.89-119.61l31.23-407.27C1723.65,1819.92,1697.69,1832.7,1658,1842.43Z"/></g></svg>