<?xml version="1.0" standalone="no"?>
<!DOCTYPE svg PUBLIC "-//W3C//DTD SVG 20010904//EN"
 "http://www.w3.org/TR/2001/REC-SVG-20010904/DTD/svg10.dtd">
<svg version="1.0" xmlns="http://www.w3.org/2000/svg"
 width="326.000000pt" height="319.000000pt" viewBox="0 0 326.000000 319.000000"
 preserveAspectRatio="xMidYMid meet">

<g transform="translate(0.000000,319.000000) scale(0.100000,-0.100000)"
fill="#000000" stroke="none">
<path d="M1622 3014 c-12 -8 -29 -29 -38 -46 -22 -42 -46 -163 -38 -193 9 -36
39 -32 55 8 15 36 26 47 52 47 12 0 17 -8 17 -28 0 -16 6 -37 14 -48 14 -18
15 -18 33 -1 14 13 18 31 16 73 -4 119 -36 204 -76 204 -7 0 -23 -7 -35 -16z
m43 -84 c8 -36 0 -50 -26 -50 -21 0 -24 16 -9 54 13 34 27 33 35 -4z"/>
<path d="M1361 3007 c-34 -12 -61 -41 -49 -52 3 -4 14 -8 25 -9 27 -4 42 -149
19 -175 -22 -25 -20 -51 4 -51 30 0 98 30 104 46 3 7 -4 20 -14 27 -27 19 -44
159 -22 181 18 18 9 46 -15 45 -10 0 -33 -5 -52 -12z"/>
<path d="M1887 2978 c-19 -29 -52 -138 -61 -200 -6 -42 -5 -48 15 -58 12 -7
45 -10 75 -8 95 8 107 50 18 64 -35 5 -44 10 -40 23 37 124 43 191 19 198 -6
2 -18 -6 -26 -19z"/>
<path d="M1150 2959 c-56 -25 -80 -47 -80 -72 0 -17 5 -19 33 -14 32 5 34 4
45 -37 26 -98 53 -156 73 -156 26 0 25 34 -5 135 l-24 80 24 26 c53 55 18 76
-66 38z"/>
<path d="M917 2863 c-14 -14 -6 -48 24 -101 l31 -55 -42 34 c-94 77 -130 86
-130 30 0 -45 39 -136 77 -181 60 -70 91 -45 49 40 -14 28 -20 47 -13 43 7 -4
31 -21 54 -36 49 -34 86 -33 91 2 6 38 -37 137 -80 186 -40 45 -49 51 -61 38z"/>
<path d="M2297 2788 c-64 -88 -104 -187 -84 -207 11 -11 56 8 90 37 23 20 30
11 17 -22 -16 -44 -13 -86 8 -86 19 0 152 131 172 168 12 25 7 52 -10 52 -6 0
-31 -19 -55 -41 -50 -46 -51 -46 -30 4 31 74 13 85 -54 37 l-42 -31 21 40 c38
76 14 112 -33 49z"/>
<path d="M600 2648 c-16 -22 -30 -48 -30 -58 0 -24 52 -99 103 -149 37 -36 50
-42 71 -37 29 7 66 69 66 111 0 36 -36 34 -58 -5 -30 -52 -52 -28 -29 31 8 18
12 40 10 47 -8 21 -42 13 -56 -14 -11 -21 -15 -23 -25 -11 -10 11 -8 23 7 57
35 78 -8 99 -59 28z"/>
<path d="M2565 2565 c-65 -35 -115 -100 -115 -150 0 -33 42 -75 75 -75 63 0
152 75 176 148 10 29 8 38 -8 61 -24 32 -83 39 -128 16z m65 -69 c0 -35 -91
-109 -105 -86 -11 17 5 48 36 75 33 27 69 33 69 11z"/>
<path d="M433 2488 c-28 -36 -24 -92 9 -127 13 -15 31 -21 62 -21 50 0 61 -10
70 -63 8 -42 28 -56 51 -37 19 16 19 50 -1 98 -17 44 -52 65 -90 56 -32 -8
-54 11 -54 46 0 54 -24 78 -47 48z"/>
<path d="M2701 2313 c-101 -62 -123 -85 -104 -104 10 -10 22 -9 53 4 53 20 61
5 26 -48 -29 -42 -31 -51 -16 -60 19 -12 50 6 74 42 22 31 30 35 71 37 38 2
52 7 71 30 35 40 31 72 -15 117 -21 22 -45 39 -53 39 -7 0 -56 -26 -107 -57z
m119 -50 c0 -20 -25 -26 -51 -13 l-22 12 24 19 c25 19 49 10 49 -18z"/>
<path d="M299 2294 c-14 -18 -14 -65 0 -93 24 -43 42 -53 90 -47 56 8 66 1 83
-49 9 -29 19 -40 33 -40 45 0 23 119 -26 146 -13 6 -39 8 -64 5 -47 -8 -59 1
-69 51 -8 36 -29 48 -47 27z"/>
<path d="M1005 2236 c-37 -16 -70 -52 -84 -89 -7 -19 -11 -179 -11 -461 0
-433 0 -433 23 -467 34 -52 97 -79 184 -79 l73 0 0 -123 c0 -125 6 -147 39
-147 9 0 96 61 194 135 l179 135 276 0 c311 0 336 5 383 71 l24 34 3 446 3
445 -24 34 c-12 19 -40 45 -62 57 l-40 23 -565 -1 c-449 0 -571 -3 -595 -13z
m1146 -66 c69 -19 70 -24 67 -491 l-3 -411 -28 -24 -28 -24 -289 0 -289 0
-153 -114 -153 -114 -3 96 c-3 128 -8 132 -142 132 -152 0 -140 -40 -140 480
0 406 1 428 19 444 10 9 32 21 47 26 42 12 1051 12 1095 0z"/>
<path d="M1831 1852 c-50 -25 -74 -63 -79 -125 -7 -83 32 -149 99 -167 29 -8
46 -7 78 6 23 9 41 21 42 28 0 6 4 1 9 -11 6 -13 18 -23 30 -23 18 0 20 6 20
80 l0 80 -65 0 c-63 0 -65 -1 -65 -25 0 -22 4 -25 35 -25 39 0 42 -6 19 -38
-22 -32 -86 -31 -119 3 -48 47 -21 166 40 181 29 7 81 -11 89 -32 3 -8 17 -14
31 -14 35 0 32 25 -9 66 -28 28 -41 34 -77 34 -24 0 -59 -8 -78 -18z"/>
<path d="M1180 1710 l0 -150 110 0 110 0 0 25 c0 25 -1 25 -80 25 l-80 0 0 40
0 40 70 0 c68 0 70 1 70 25 0 24 -2 25 -70 25 l-70 0 0 35 0 35 80 0 c79 0 80
0 80 25 l0 25 -110 0 -110 0 0 -150z"/>
<path d="M1450 1711 l0 -151 30 0 29 0 3 108 3 107 60 -107 c57 -102 62 -108
93 -108 l32 0 0 150 0 150 -30 0 -29 0 -3 -100 -3 -99 -55 97 c-53 93 -57 97
-93 100 l-37 3 0 -150z"/>
<path d="M2865 2081 c-81 -23 -139 -53 -143 -72 -4 -23 46 -79 85 -95 43 -19
117 -18 154 2 17 8 37 30 45 49 12 30 12 39 -2 75 -16 40 -39 61 -66 59 -7 0
-40 -8 -73 -18z m73 -74 c2 -10 -2 -24 -8 -32 -17 -20 -94 -20 -110 0 -16 19
-12 23 37 41 48 17 77 14 81 -9z"/>
<path d="M202 2078 c-5 -7 -13 -35 -17 -61 -11 -72 19 -99 154 -136 l72 -20
21 21 c17 17 19 29 16 70 -9 86 -54 100 -65 20 -4 -29 -9 -39 -19 -35 -8 3
-14 16 -14 28 0 77 -51 102 -60 31 -5 -38 -6 -39 -22 -22 -11 10 -18 33 -18
55 0 50 -25 76 -48 49z"/>
<path d="M234 1630 c-56 -22 -80 -100 -50 -159 29 -55 114 -68 165 -25 95 80
1 231 -115 184z"/>
<path d="M2864 1622 c-90 -57 -52 -202 52 -202 71 0 114 43 114 115 0 79 -98
130 -166 87z"/>
<path d="M2733 1198 c-39 -10 -63 -50 -63 -103 0 -29 6 -39 33 -55 43 -27 134
-61 178 -67 32 -5 37 -2 42 18 11 41 8 71 -14 116 -34 71 -108 109 -176 91z
m98 -87 c36 -36 40 -76 7 -65 -88 28 -117 56 -83 80 28 20 43 17 76 -15z"/>
<path d="M350 1181 c-122 -40 -138 -63 -89 -130 52 -73 113 -64 71 10 -19 33
-21 40 -8 45 10 4 25 -6 42 -25 43 -52 95 -34 56 19 -19 25 -20 29 -5 34 11 5
29 -5 53 -29 56 -54 95 -44 64 17 -41 82 -78 94 -184 59z"/>
<path d="M475 965 c-49 -81 -41 -75 -102 -73 -36 2 -57 -1 -60 -9 -7 -20 33
-51 76 -58 52 -9 86 11 107 61 18 44 37 51 79 31 30 -14 35 -14 46 -1 26 32
-27 74 -93 74 -29 0 -41 -5 -53 -25z"/>
<path d="M2599 961 c-32 -25 -56 -105 -39 -126 23 -28 191 -125 215 -125 33 0
32 20 -5 55 -47 45 -40 56 30 48 56 -5 60 -5 60 15 0 25 -23 39 -79 48 -25 4
-41 12 -41 20 0 24 -54 74 -85 80 -22 4 -38 0 -56 -15z m79 -99 l3 -33 -25 16
c-33 22 -35 58 -3 53 17 -2 23 -11 25 -36z"/>
<path d="M595 817 c-10 -8 -25 -34 -34 -58 -16 -44 -17 -44 -69 -47 -35 -2
-55 -8 -59 -18 -14 -37 59 -65 120 -45 25 9 38 21 47 44 31 85 26 79 80 72 46
-6 50 -5 50 13 0 44 -92 70 -135 39z"/>
<path d="M2431 734 c-26 -33 -26 -64 -1 -113 50 -99 172 -149 215 -88 33 47
13 110 -55 171 -70 63 -125 73 -159 30z m133 -94 c41 -46 45 -60 16 -60 -29 0
-68 28 -85 60 -28 55 19 55 69 0z"/>
<path d="M673 615 c-74 -76 -81 -91 -63 -125 11 -21 103 -55 125 -46 28 10 16
42 -21 59 -19 10 -34 23 -31 30 4 12 17 13 74 1 56 -11 55 39 -1 59 -8 3 -8 8
0 17 9 9 23 8 62 -3 36 -11 53 -12 61 -4 20 20 12 36 -32 62 -72 41 -91 36
-174 -50z"/>
<path d="M2306 611 c-5 -8 10 -66 30 -116 5 -13 -11 -3 -42 25 l-49 45 -3 -27
c-2 -15 1 -44 7 -65 l11 -38 -40 44 c-39 42 -62 49 -68 20 -6 -34 137 -209
171 -209 20 0 23 53 8 108 l-10 32 41 -35 c85 -72 102 -28 43 108 -19 44 -42
89 -52 99 -17 19 -38 24 -47 9z"/>
<path d="M907 510 c-25 -28 -55 -70 -66 -93 -48 -99 -7 -135 52 -47 l34 50 -5
-73 c-3 -58 -1 -75 11 -85 21 -18 44 -5 96 54 48 55 87 149 71 170 -18 21 -40
5 -82 -60 -22 -34 -37 -52 -34 -41 14 56 24 135 19 154 -10 37 -47 26 -96 -29z"/>
<path d="M1158 430 c-26 -16 -22 -39 7 -46 31 -8 31 -7 -1 -109 -29 -93 -28
-120 1 -120 16 0 26 18 54 103 30 90 36 102 56 102 58 0 78 42 29 60 -41 16
-127 22 -146 10z"/>
<path d="M1815 378 c-7 -29 18 -171 39 -220 21 -48 53 -50 119 -8 78 49 50 98
-33 55 -33 -17 -29 -23 -55 88 -8 38 -20 77 -25 88 -14 26 -38 24 -45 -3z"/>
<path d="M1363 383 c-20 -7 -15 -41 6 -48 17 -5 18 -9 4 -73 -19 -94 -21 -99
-44 -105 -13 -4 -19 -12 -17 -24 3 -15 13 -18 63 -18 51 0 60 3 63 19 2 10 -2
22 -9 26 -9 6 -10 21 0 72 17 90 20 96 42 103 27 9 24 34 -7 45 -26 10 -80 12
-101 3z"/>
<path d="M1606 357 c-30 -30 -57 -118 -59 -192 -1 -69 16 -91 44 -56 10 13 19
31 19 41 0 11 10 20 26 24 31 8 28 11 40 -39 7 -30 14 -40 29 -40 34 0 40 43
21 142 -25 131 -67 173 -120 120z m52 -90 c3 -32 0 -37 -17 -37 -22 0 -26 16
-15 58 9 34 29 21 32 -21z"/>
</g>
</svg>
